<svg width="163" height="85" viewBox="0 0 163 85" fill="none" xmlns="http://www.w3.org/2000/svg">
<g clip-path="url(#clip0_736_9)">
<path fill-rule="evenodd" clip-rule="evenodd" d="M1.5 1.5H83.84V82.84H1.5V1.5ZM42.31 73.81V43.17L42.35 43.16H49.2V43.09L42.29 33.87H34.83V73.81H42.31ZM74.14 33.82H66.68C66.67 33.82 66.65 33.84 66.65 33.84L52.27 54.07V54.14H59.21L66.62 43.27H66.7V73.81H74.14V33.82Z" fill="white"/>
<path d="M83.84 1.5H84.59C84.59 1.08579 84.2542 0.75 83.84 0.75V1.5ZM1.5 1.5V0.75C1.08579 0.75 0.75 1.08579 0.75 1.5L1.5 1.5ZM83.84 82.84V83.59C84.2542 83.59 84.59 83.2542 84.59 82.84H83.84ZM1.5 82.84H0.75C0.75 83.2542 1.08579 83.59 1.5 83.59L1.5 82.84ZM42.31 43.17L42.1281 42.4424C41.7942 42.5259 41.56 42.8258 41.56 43.17H42.31ZM42.31 73.81V74.56C42.7242 74.56 43.06 74.2242 43.06 73.81H42.31ZM42.35 43.16V42.41C42.2887 42.41 42.2276 42.4175 42.1681 42.4324L42.35 43.16ZM49.2 43.16V43.91C49.6142 43.91 49.95 43.5742 49.95 43.16H49.2ZM49.2 43.09H49.95C49.95 42.9278 49.8974 42.77 49.8002 42.6402L49.2 43.09ZM42.29 33.87L42.8902 33.4202C42.7485 33.2312 42.5262 33.12 42.29 33.12V33.87ZM34.83 33.87V33.12C34.4158 33.12 34.08 33.4558 34.08 33.87H34.83ZM34.83 73.81H34.08C34.08 74.2242 34.4158 74.56 34.83 74.56V73.81ZM74.14 33.82H74.89C74.89 33.4058 74.5542 33.07 74.14 33.07V33.82ZM66.65 33.84L66.1196 33.3097C66.09 33.3393 66.063 33.3714 66.0387 33.4055L66.65 33.84ZM52.27 54.07L51.6587 53.6355C51.5685 53.7624 51.52 53.9143 51.52 54.07H52.27ZM52.27 54.14H51.52C51.52 54.5542 51.8558 54.89 52.27 54.89V54.14ZM59.21 54.14V54.89C59.458 54.89 59.69 54.7674 59.8297 54.5625L59.21 54.14ZM66.62 43.27V42.52C66.372 42.52 66.14 42.6426 66.0003 42.8476L66.62 43.27ZM66.7 43.27H67.45C67.45 42.8558 67.1142 42.52 66.7 42.52V43.27ZM66.7 73.81H65.95C65.95 74.2242 66.2858 74.56 66.7 74.56V73.81ZM74.14 73.81V74.56C74.5542 74.56 74.89 74.2242 74.89 73.81H74.14ZM83.84 0.75H1.5V2.25H83.84V0.75ZM84.59 82.84V1.5H83.09V82.84H84.59ZM1.5 83.59H83.84V82.09H1.5V83.59ZM0.75 1.5V82.84H2.25V1.5H0.75ZM41.56 43.17V73.81H43.06V43.17H41.56ZM42.1681 42.4324L42.1281 42.4424L42.4919 43.8976L42.5319 43.8876L42.1681 42.4324ZM49.2 42.41H42.35V43.91H49.2V42.41ZM48.45 43.09V43.16H49.95V43.09H48.45ZM41.6899 34.3198L48.5999 43.5398L49.8002 42.6402L42.8902 33.4202L41.6899 34.3198ZM34.83 34.62H42.29V33.12H34.83V34.62ZM35.58 73.81V33.87H34.08V73.81H35.58ZM42.31 73.06H34.83V74.56H42.31V73.06ZM66.68 34.57H74.14V33.07H66.68V34.57ZM66.65 33.84C67.1804 34.3703 67.1803 34.3704 67.1803 34.3704C67.1802 34.3704 67.1802 34.3705 67.1801 34.3705C67.1801 34.3706 67.18 34.3707 67.1799 34.3708C67.1797 34.371 67.1795 34.3712 67.1794 34.3713C67.179 34.3717 67.1787 34.372 67.1783 34.3724C67.1776 34.373 67.1769 34.3737 67.1762 34.3744C67.1748 34.3758 67.1734 34.3772 67.1719 34.3787C67.169 34.3815 67.1657 34.3846 67.1621 34.3879C67.1556 34.3939 67.1446 34.4038 67.1298 34.4156C67.118 34.4251 67.0874 34.4491 67.0432 34.4743C67.0206 34.4872 66.9825 34.5074 66.9322 34.5257C66.8861 34.5425 66.7966 34.57 66.68 34.57V33.07C66.4703 33.07 66.3222 33.1587 66.299 33.172C66.2482 33.201 66.2108 33.2299 66.1927 33.2444C66.1717 33.2612 66.1551 33.2761 66.1445 33.2858C66.1389 33.291 66.134 33.2957 66.1299 33.2996C66.1279 33.3016 66.126 33.3035 66.1243 33.3051C66.1234 33.306 66.1226 33.3068 66.1218 33.3075C66.1214 33.3079 66.1211 33.3083 66.1207 33.3087C66.1205 33.3088 66.1203 33.309 66.1202 33.3092C66.1201 33.3093 66.12 33.3094 66.1199 33.3095C66.1199 33.3095 66.1198 33.3096 66.1198 33.3096C66.1197 33.3097 66.1196 33.3097 66.65 33.84ZM52.8813 54.5045L67.2613 34.2745L66.0387 33.4055L51.6587 53.6355L52.8813 54.5045ZM53.02 54.14V54.07H51.52V54.14H53.02ZM59.21 53.39H52.27V54.89H59.21V53.39ZM66.0003 42.8476L58.5903 53.7176L59.8297 54.5625L67.2397 43.6925L66.0003 42.8476ZM66.7 42.52H66.62V44.02H66.7V42.52ZM67.45 73.81V43.27H65.95V73.81H67.45ZM74.14 73.06H66.7V74.56H74.14V73.06ZM73.39 33.82V73.81H74.89V33.82H73.39Z" fill="white"/>
<path d="M103.55 33.92V74H96.73V34L103.55 33.92ZM114.07 54.25H107.12L115.12 73.95H122.2L114.04 54.25C115.515 53.7566 116.869 52.956 118.011 51.9011C119.154 50.8461 120.06 49.5608 120.67 48.13C121.211 46.8274 121.49 45.4306 121.49 44.02C121.49 42.6094 121.211 41.2126 120.67 39.91C120.066 38.4891 119.16 37.2165 118.015 36.1805C116.87 35.1444 115.514 34.3697 114.04 33.91L114.07 54.25Z" fill="white" stroke="white" stroke-width="1.5" stroke-linecap="round" stroke-linejoin="round"/>
<path d="M140.33 33.92V74H132.81V34L140.33 33.92ZM161.81 65.28V74H152.06L161.81 65.28Z" fill="white" stroke="white" stroke-width="1.5" stroke-linecap="round" stroke-linejoin="round"/>
</g>
<defs>
<clipPath id="clip0_736_9">
<rect width="162.56" height="84.34" fill="white"/>
</clipPath>
</defs>
</svg>
