<svg width="162" height="82" viewBox="0 0 162 82" fill="none" xmlns="http://www.w3.org/2000/svg">
<path fill-rule="evenodd" clip-rule="evenodd" d="M0 0H82.34V81.34H0V0ZM40.81 72.31V41.67L40.85 41.66H47.7V41.59L40.79 32.37H33.33V72.31H40.81ZM72.64 32.32H65.18C65.17 32.32 65.15 32.34 65.15 32.34L50.77 52.57V52.64H57.71L65.12 41.77H65.2V72.31H72.64V32.32Z" fill="white"/>
<path d="M102.05 32.42V72.5H95.23V32.5L102.05 32.42ZM112.57 52.75H105.62L113.62 72.45H120.7L112.54 52.75C114.015 52.2566 115.369 51.456 116.511 50.4011C117.654 49.3461 118.56 48.0608 119.17 46.63C119.711 45.3274 119.99 43.9306 119.99 42.52C119.99 41.1094 119.711 39.7126 119.17 38.41C118.566 36.9891 117.66 35.7165 116.515 34.6805C115.37 33.6444 114.014 32.8697 112.54 32.41L112.57 52.75Z" fill="white" stroke="white" stroke-width="1.5" stroke-linecap="round" stroke-linejoin="round"/>
<path d="M138.83 32.42V72.5H131.31V32.5L138.83 32.42ZM160.31 63.78V72.5H150.56L160.31 63.78Z" fill="white" stroke="white" stroke-width="1.5" stroke-linecap="round" stroke-linejoin="round"/>
</svg>
