<svg width="68" height="40" viewBox="0 0 68 40" fill="none" xmlns="http://www.w3.org/2000/svg">
<path d="M33.7444 28.8279C38.6742 28.8313 42.6743 24.8379 42.6775 19.907C42.681 14.9771 38.6876 10.9771 33.7567 10.9737C28.8268 10.9703 24.8268 14.9636 24.8234 19.8945C24.8201 24.8244 28.8145 28.8246 33.7444 28.8279ZM39.9384 19.7914C40.3681 19.8778 40.7024 20.1751 40.9009 20.5498C40.9311 20.6036 40.9479 20.6608 40.9727 20.718C41.0062 20.8011 41.0321 20.8853 41.0523 20.9728C41.1174 21.2351 41.1465 21.5112 41.0961 21.7949C40.709 23.9486 39.1689 25.7983 36.9962 26.2929C36.2491 26.4636 35.5054 26.1191 35.1711 25.445C35.0501 25.2923 34.9491 25.113 34.8817 24.8919C34.4578 23.4955 34.7865 21.8005 35.935 20.8214C37.0903 19.8374 38.4466 19.493 39.9384 19.7914ZM26.8032 20.0001C26.8032 15.9574 29.9059 12.6675 33.7174 12.6675C34.3377 12.6675 34.839 13.17 34.839 13.7892C34.839 14.4083 34.3377 14.9108 33.7174 14.9108C31.1419 14.9108 29.0466 17.1934 29.0466 20C29.0466 20.619 28.5453 21.1217 27.925 21.1217C27.3047 21.1217 26.8032 20.6191 26.8032 20.0001Z" fill="#3C3C3C"/>
<path d="M33.7174 40C57.7175 40 67.4358 23.0028 67.4358 20.1772C67.4358 17.013 55.2844 0 33.7174 0C11.3203 0 0 16.7695 0 20.1772C0 23.5245 11.3203 40 33.7174 40ZM33.64 4.6012C42.1448 4.60683 49.0333 11.5065 49.0276 20.0101C49.022 28.5148 42.1224 35.4034 33.6187 35.3976C25.1139 35.3921 18.2256 28.4924 18.2312 19.9889C18.2367 11.4851 25.1363 4.59569 33.64 4.6012Z" fill="#3C3C3C"/>
</svg>
