<svg width="40" height="40" viewBox="0 0 40 40" fill="none" xmlns="http://www.w3.org/2000/svg">
<g clip-path="url(#clip0_740_90)">
<path d="M12.9094 18.2318L19.4968 11.6449C19.8576 11.284 20.442 11.284 20.8028 11.6449L27.3901 18.2318C27.972 18.8136 27.5598 19.8087 26.7373 19.8087H23.0894L23.089 25.6867C23.089 27.3099 21.7731 28.6253 20.1504 28.6253C18.5272 28.6253 17.2117 27.3095 17.2117 25.6867V19.8087H13.5638C12.7398 19.8087 12.328 18.814 12.9095 18.2318H12.9094Z" fill="#292929"/>
<path d="M3.91844 20C3.91844 11.1327 11.1327 3.91853 19.9999 3.91853C28.8671 3.91853 36.0814 11.1328 36.0814 20C36.0814 28.8672 28.8671 36.0815 19.9999 36.0815C11.1327 36.0815 3.91844 28.8672 3.91844 20ZM0 20C-1.31715e-07 31.0453 8.95428 40 20 40C31.0453 40 40 31.0453 40 20C40 8.95466 31.0453 1.3171e-07 20 0C8.95465 -1.3172e-07 1.31714e-07 8.95465 0 20Z" fill="#292929"/>
</g>
<defs>
<clipPath id="clip0_740_90">
<rect width="40" height="40" fill="white"/>
</clipPath>
</defs>
</svg>
