<svg width="40" height="40" fill="none" xmlns="http://www.w3.org/2000/svg"><g clip-path="url(#a)"><path d="M20 36c8.837 0 16-7.163 16-16S28.837 4 20 4 4 11.163 4 20s7.163 16 16 16Z" fill="#fff"/><path d="m12.91 18.232 6.587-6.587a.923.923 0 0 1 1.306 0l6.587 6.587c.582.582.17 1.577-.653 1.577H23.09v5.878a2.939 2.939 0 1 1-5.877 0v-5.878h-3.648c-.824 0-1.236-.995-.655-1.577Z" fill="#292929"/><path d="M3.918 20c0-8.867 7.215-16.081 16.082-16.081S36.08 11.133 36.08 20c0 8.867-7.214 16.081-16.081 16.081-8.867 0-16.082-7.214-16.082-16.081ZM0 20c0 11.045 8.954 20 20 20 11.045 0 20-8.955 20-20S31.045 0 20 0 0 8.955 0 20Z" fill="#292929"/></g><defs><clipPath id="a"><path fill="#fff" d="M0 0h40v40H0z"/></clipPath></defs></svg>