<svg width="40" height="40" fill="none" xmlns="http://www.w3.org/2000/svg"><path d="M20 36a16 16 0 1 0 0-32 16 16 0 0 0 0 32Zm0 4C8.954 40 0 31.046 0 20S8.954 0 20 0s20 8.954 20 20-8.954 20-20 20Z" fill="#292929"/><path d="M20.801 10.263a1.58 1.58 0 0 0-1.774.02l-7.95 5.538a1.58 1.58 0 0 0-.678 1.296v5.964a1.58 1.58 0 0 0 .71 1.318l8.078 5.34a1.58 1.58 0 0 0 1.74 0l8.24-5.444a1.58 1.58 0 0 0 .708-1.316v-5.86a1.58 1.58 0 0 0-.708-1.32L20.8 10.263h.002Zm6.154 6.46-3.046 2.046-2.856-2.076-.018-4.086 5.92 4.118v-.002Zm-7.986-4.11v3.998l-2.926 2.044-2.92-1.958 5.846-4.086v.002Zm-6.644 6.054 1.888 1.266-1.888 1.322v-2.588Zm6.694 8.522-5.894-3.952 2.944-2.058 2.95 1.98v4.03ZM17.9 19.9l1.91-1.334 2.22 1.46-1.968 1.324-2.16-1.45H17.9Zm3.202 7.288v-4.032l2.82-1.888 3.034 1.994-5.854 3.926Zm6.694-5.866-2-1.314 2-1.342v2.656Z" fill="#292929"/></svg>