<svg width="36" height="40" fill="none" xmlns="http://www.w3.org/2000/svg"><path d="M11.25 4.449c-.597 0-1.169.234-1.591.65A2.207 2.207 0 0 0 9 6.67c0 .59.237 1.155.659 1.571.422.417.994.65 1.591.65s1.169-.233 1.591-.65c.422-.416.659-.981.659-1.57 0-.59-.237-1.155-.659-1.572a2.265 2.265 0 0 0-1.591-.65Zm-6.367 0A6.676 6.676 0 0 1 7.35 1.225 6.812 6.812 0 0 1 11.25 0c1.397 0 2.76.428 3.9 1.225a6.677 6.677 0 0 1 2.467 3.224H33.75c.597 0 1.169.234 1.591.65.422.417.659.982.659 1.571 0 .59-.237 1.155-.659 1.571-.422.417-.994.65-1.591.65H17.617a6.677 6.677 0 0 1-2.467 3.225 6.812 6.812 0 0 1-3.9 1.225 6.811 6.811 0 0 1-3.9-1.225 6.676 6.676 0 0 1-2.467-3.224H2.25a2.265 2.265 0 0 1-1.591-.65A2.208 2.208 0 0 1 0 6.67c0-.589.237-1.154.659-1.57.422-.417.994-.651 1.591-.651h2.633Zm19.867 13.33c-.597 0-1.169.233-1.591.65A2.208 2.208 0 0 0 22.5 20c0 .59.237 1.154.659 1.57a2.265 2.265 0 0 0 3.182 0c.422-.416.659-.98.659-1.57 0-.59-.237-1.154-.659-1.57a2.265 2.265 0 0 0-1.591-.652Zm-6.367 0a6.677 6.677 0 0 1 2.467-3.225 6.812 6.812 0 0 1 3.9-1.224c1.397 0 2.76.428 3.9 1.224a6.677 6.677 0 0 1 2.468 3.224h2.632c.597 0 1.169.234 1.591.651.422.417.659.982.659 1.571 0 .59-.237 1.154-.659 1.57-.422.418-.994.652-1.591.652h-2.633a6.677 6.677 0 0 1-2.467 3.224 6.812 6.812 0 0 1-3.9 1.224 6.812 6.812 0 0 1-3.9-1.224 6.677 6.677 0 0 1-2.468-3.224H2.25a2.264 2.264 0 0 1-1.591-.651A2.207 2.207 0 0 1 0 20c0-.59.237-1.154.659-1.57.422-.418.994-.652 1.591-.652h16.133Zm-7.133 13.33c-.597 0-1.169.233-1.591.65A2.207 2.207 0 0 0 9 33.329c0 .59.237 1.155.659 1.572.422.416.994.65 1.591.65s1.169-.234 1.591-.65c.422-.417.659-.982.659-1.571 0-.59-.237-1.155-.659-1.571a2.265 2.265 0 0 0-1.591-.65Zm-6.367 0a6.677 6.677 0 0 1 2.467-3.225 6.812 6.812 0 0 1 3.9-1.225c1.397 0 2.76.428 3.9 1.225a6.677 6.677 0 0 1 2.467 3.224H33.75c.597 0 1.169.234 1.591.65.422.417.659.982.659 1.572 0 .589-.237 1.154-.659 1.57-.422.417-.994.651-1.591.651H17.617a6.677 6.677 0 0 1-2.467 3.224A6.812 6.812 0 0 1 11.25 40a6.812 6.812 0 0 1-3.9-1.225 6.676 6.676 0 0 1-2.467-3.224H2.25a2.264 2.264 0 0 1-1.591-.65A2.207 2.207 0 0 1 0 33.33c0-.59.237-1.155.659-1.571.422-.417.994-.65 1.591-.65h2.633Z" fill="#292929"/></svg>