<svg width="35" height="41" fill="none" xmlns="http://www.w3.org/2000/svg"><g clip-path="url(#a)"><path d="M10.242 41a8.98 8.98 0 0 0 1.098-.05c.285-.058.542-.212.73-.438.242-.258.364-.631.364-1.123l-.016-2.284a419.09 419.09 0 0 1-.016-3.46l-.762.135a9.645 9.645 0 0 1-1.843.115 14.001 14.001 0 0 1-2.309-.234 5.14 5.14 0 0 1-2.22-1.008A4.262 4.262 0 0 1 3.81 30.59l-.332-.775a8.4 8.4 0 0 0-1.045-1.71 4.022 4.022 0 0 0-1.446-1.28l-.231-.163a2.454 2.454 0 0 1-.43-.41 1.865 1.865 0 0 1-.3-.467c-.064-.156-.011-.287.163-.386.305-.124.635-.176.964-.151l.664.102c.446.086.993.357 1.645.804A5.471 5.471 0 0 1 5.07 27.9c.51.918 1.122 1.62 1.843 2.1a3.874 3.874 0 0 0 2.171.72c.73 0 1.361-.052 1.892-.163a6.555 6.555 0 0 0 1.494-.509c.199-1.496.737-2.652 1.62-3.456a22.497 22.497 0 0 1-3.398-.607 13.466 13.466 0 0 1-3.119-1.312A8.957 8.957 0 0 1 4.9 22.428c-.705-.898-1.284-2.07-1.742-3.526a16.96 16.96 0 0 1-.677-5.039c0-2.706.875-5.014 2.621-6.916-.818-2.038-.741-4.321.231-6.85C5.977-.11 6.93.042 8.19.546c1.26.504 2.187.935 2.77 1.296.588.356 1.054.656 1.41.902a23.28 23.28 0 0 1 6.372-.87c2.187 0 4.314.287 6.371.874l1.256-.808c.867-.533 1.884-1.029 3.054-1.476 1.175-.45 2.07-.574 2.69-.369.996 2.53 1.085 4.813.263 6.847 1.75 1.906 2.625 4.21 2.625 6.92 0 1.903-.227 3.588-.68 5.055-.454 1.468-1.041 2.64-1.758 3.526a9.303 9.303 0 0 1-2.69 2.235 13.45 13.45 0 0 1-3.12 1.312c-1.116.288-2.254.49-3.402.602 1.15 1.005 1.726 2.595 1.726 4.768v8.024c0 .381.057.688.166.926a.926.926 0 0 0 .53.488c.244.086.462.144.649.164.19.025.457.037.81.037H10.242Z" fill="#292929"/></g><defs><clipPath id="a"><path fill="#fff" d="M0 0h35v41H0z"/></clipPath></defs></svg>