<svg width="40" height="40" fill="none" xmlns="http://www.w3.org/2000/svg"><path d="M16.353 30.009c.24 0 .422-.008.542-.024a.634.634 0 0 0 .36-.214c.12-.126.18-.308.18-.548l-.008-1.114c-.006-.71-.008-1.274-.008-1.688l-.376.066a4.82 4.82 0 0 1-.91.056 7 7 0 0 1-1.14-.114 2.552 2.552 0 0 1-1.096-.492 2.08 2.08 0 0 1-.72-1.006l-.164-.378a4.09 4.09 0 0 0-.516-.834 1.978 1.978 0 0 0-.714-.624l-.114-.08a1.206 1.206 0 0 1-.36-.428c-.032-.076-.006-.14.08-.188.151-.061.314-.086.476-.074l.328.05c.22.042.49.174.812.392.32.22.586.502.794.852.252.448.554.79.91 1.024.314.221.688.344 1.072.352.36 0 .672-.026.934-.08.255-.053.503-.136.738-.248.098-.73.364-1.294.8-1.686a11.228 11.228 0 0 1-1.678-.296 6.693 6.693 0 0 1-1.54-.64 4.41 4.41 0 0 1-1.32-1.096c-.348-.438-.634-1.01-.86-1.72a8.18 8.18 0 0 1-.334-2.458c0-1.32.432-2.446 1.294-3.374-.404-.994-.366-2.108.114-3.342.318-.1.788-.026 1.41.22.622.246 1.08.456 1.368.632.29.174.52.32.696.44a11.625 11.625 0 0 1 3.146-.424c1.08 0 2.13.14 3.146.426l.62-.394c.428-.26.93-.502 1.508-.72.58-.22 1.022-.28 1.328-.18.492 1.234.536 2.348.13 3.34.864.93 1.296 2.054 1.296 3.376 0 .928-.112 1.75-.336 2.466-.224.716-.514 1.288-.868 1.72a4.58 4.58 0 0 1-1.328 1.09 6.684 6.684 0 0 1-1.54.64c-.552.14-1.113.238-1.68.294.568.49.852 1.266.852 2.326v3.914c0 .186.028.336.082.452a.453.453 0 0 0 .262.238c.12.042.228.07.32.08.094.012.226.018.4.018h-8.388Z" fill="#292929"/><path d="M20 36a16 16 0 1 0 0-32 16 16 0 0 0 0 32Zm0 4C8.954 40 0 31.046 0 20S8.954 0 20 0s20 8.954 20 20-8.954 20-20 20Z" fill="#292929"/></svg>