<svg width="67" height="40" viewBox="0 0 67 40" fill="none" xmlns="http://www.w3.org/2000/svg">
<path d="M23.4626 20C23.4626 19.3407 23.2662 18.6963 22.8982 18.1481C22.5302 17.5999 22.0072 17.1727 21.3952 16.9204C20.7833 16.6681 20.1099 16.6021 19.4602 16.7307C18.8106 16.8593 18.2138 17.1768 17.7455 17.643C17.2771 18.1092 16.9581 18.7031 16.8289 19.3497C16.6997 19.9963 16.766 20.6665 17.0195 21.2756C17.273 21.8847 17.7022 22.4053 18.253 22.7716C18.8037 23.1378 19.4512 23.3333 20.1136 23.3333C21.0018 23.3333 21.8537 22.9821 22.4817 22.357C23.1098 21.7319 23.4626 20.8841 23.4626 20ZM0.990642 22.3667L17.7358 39.0333C18.0487 39.3422 18.4198 39.5866 18.8279 39.7525C19.2359 39.9184 19.6728 40.0025 20.1136 39.9999L56.9529 39.9999C59.6176 39.9999 62.1731 38.9464 64.0573 37.071C65.9415 35.1957 67 32.6521 67 30L67 10C67 7.34787 65.9415 4.80434 64.0573 2.92898C62.1731 1.05362 59.6176 6.03899e-05 56.9529 6.0157e-05L20.1136 5.69364e-05C19.6728 -0.0024794 19.2359 0.0816022 18.8279 0.247484C18.4198 0.413365 18.0487 0.657787 17.7358 0.966724L0.990642 17.6333C0.676743 17.9432 0.427589 18.3119 0.257563 18.7181C0.0875371 19.1243 1.69469e-06 19.56 1.65623e-06 20C1.61776e-06 20.44 0.0875369 20.8757 0.257563 21.2819C0.427588 21.6881 0.676743 22.0568 0.990642 22.3667ZM21.4867 6.6667L56.9529 6.66671C57.8411 6.66671 58.693 7.0179 59.321 7.64302C59.9491 8.26814 60.3019 9.11598 60.3019 10L60.3019 30C60.3019 30.884 59.9491 31.7319 59.321 32.357C58.693 32.9821 57.8411 33.3333 56.9529 33.3333L21.4867 33.3333L8.09058 20L21.4867 6.6667Z" fill="#292929"/>
</svg>
