<svg width="40" height="40" fill="none" xmlns="http://www.w3.org/2000/svg"><path d="M15.629 27.333h-3.556V15.78h3.556v11.553ZM13.85 14.298c-1.282 0-1.924-.594-1.924-1.778 0-.496.182-.916.555-1.26.37-.344.825-.518 1.37-.518 1.281 0 1.924.596 1.924 1.78 0 1.185-.64 1.776-1.925 1.776Zm14.965 13.035h-3.63V20.89c0-1.678-.595-2.518-1.78-2.518-.937 0-1.553.469-1.853 1.407-.095.149-.146.446-.146.889v6.666h-3.63v-7.85c0-1.779-.026-3.012-.073-3.703h3.112l.222 1.553c.815-1.235 2-1.85 3.629-1.85 1.237 0 2.235.43 3 1.295.769.864 1.15 2.11 1.15 3.742v6.813h-.001ZM20 40C8.971 40 0 31.029 0 20S8.971 0 20 0s20 8.971 20 20-8.971 20-20 20Zm0-35.556c-8.576 0-15.556 6.98-15.556 15.556 0 8.576 6.98 15.556 15.556 15.556 8.576 0 15.556-6.98 15.556-15.556 0-8.576-6.98-15.556-15.556-15.556Z" fill="#292929"/></svg>