<svg width="800" height="30" viewBox="0 0 800 30" fill="none" xmlns="http://www.w3.org/2000/svg">
<path d="M573.385 0C570.963 0 569 1.96307 569 4.38461C569 6.80616 570.963 8.76923 573.385 8.76923H583.615C586.037 8.76923 588 6.80616 588 4.38461C588 1.96307 586.037 0 583.615 0H573.385Z" fill="#292929"/>
<path d="M583.615 10.2308C581.194 10.2308 579.231 12.1938 579.231 14.6154C579.231 17.037 581.194 19 583.615 19C586.037 19 588 17.037 588 14.6154C588 12.1938 586.037 10.2308 583.615 10.2308Z" fill="#292929"/>
<path d="M569 14.6154C569 12.1938 570.963 10.2308 573.385 10.2308H577.769V19H573.385C570.963 19 569 17.037 569 14.6154Z" fill="#292929"/>
<path d="M573.385 20.4615C570.963 20.4615 569 22.4245 569 24.8461C569 27.2677 570.963 29.2307 573.385 29.2307C575.806 29.2307 577.769 27.2677 577.769 24.8461V20.4615H573.385Z" fill="#292929"/>
<path d="M323.17 22.3516L311.033 29V23.8218L318.595 19.7935L323.17 22.3516H323.17ZM324 21.6235V7.71943L319.559 10.2018V19.1384L324 21.6235V21.6235ZM297.83 22.3516L309.967 29V23.8218L302.405 19.7935L297.83 22.3516H297.83ZM297 21.6235V7.71943L301.441 10.2018V19.1384L297 21.6235V21.6235ZM297.52 6.81981L309.967 0V5.00668L301.993 9.25421L301.932 9.288L297.52 6.81981V6.81981ZM323.48 6.81981L311.033 0V5.00668L319.007 9.25435L319.068 9.28814L323.48 6.81995L323.48 6.81981ZM309.967 22.644L302.507 18.6718V10.8006L309.967 14.9724V22.644H309.967ZM311.033 22.644L318.493 18.6718V10.8006L311.033 14.9724V22.644V22.644ZM303.012 9.88965L310.501 5.90044L317.991 9.88965L310.501 14.0783L303.012 9.88965Z" fill="#292929"/>
<path d="M18.3912 0.0188246C16.5539 -0.0796173 14.4881 0.206253 12.4674 0.918437C9.25622 2.04948 5.78313 3.82846 3.28572 6.14598C0.318999 8.90431 -0.156882 11.3049 0.0381267 12.3092C0.732355 15.8713 5.68073 18.1951 7.66071 19.9134C7.5632 19.9675 7.47228 20.0141 7.38648 20.0629C6.39324 20.5525 2.7086 22.4761 1.76476 24.5455C0.698717 26.8921 1.94114 28.5716 2.75758 28.8013C5.30438 29.5034 7.82468 28.2763 9.22484 26.203C10.6263 24.1283 10.4575 21.4206 9.81138 20.1866C9.80488 20.1682 9.79249 20.1561 9.78599 20.1377C10.0421 19.9859 10.3029 19.8332 10.5655 19.6814C11.0712 19.3845 11.5647 19.1134 11.9976 18.8772C11.7532 19.5305 11.577 20.3185 11.4847 21.4549C11.3755 22.7852 11.9287 24.5064 12.6476 25.1848C12.9648 25.4817 13.348 25.4889 13.5846 25.4889C14.4257 25.4889 14.8037 24.7994 15.2224 23.9758C15.7398 22.9715 16.1974 21.8054 16.1974 21.8054C16.1974 21.8054 15.6262 24.9605 17.1927 24.9605C17.7648 24.9605 18.3383 24.2295 18.5944 23.8547V23.8598C18.5944 23.8598 18.6038 23.8365 18.635 23.7877C18.6961 23.6966 18.7264 23.6433 18.7264 23.6433V23.6253C18.9578 23.232 19.4652 22.3313 20.2271 20.8439C21.2138 18.921 22.1568 16.5186 22.1568 16.5186C22.2478 17.0465 22.3739 17.5673 22.5352 18.0781C22.7055 18.6522 23.0668 19.2817 23.3528 19.8928C23.1214 20.2069 22.9795 20.3877 22.9795 20.3877C22.9795 20.393 22.9832 20.3979 22.9871 20.4006C22.8038 20.6421 22.596 20.9011 22.3828 21.1558C21.6028 22.0757 20.6755 23.1297 20.5546 23.4319C20.4077 23.7883 20.4452 24.0535 20.7247 24.2594C20.9314 24.4164 21.2998 24.4405 21.682 24.4115C22.3827 24.3626 22.8762 24.1923 23.1141 24.0841C23.5522 23.9284 23.966 23.7141 24.343 23.4448C25.1049 22.8879 25.5692 22.0891 25.5263 21.0373C25.5016 20.4566 25.3108 19.8746 25.0794 19.3308C25.147 19.2345 25.2213 19.1322 25.2876 19.0293C26.4941 17.2819 27.4256 15.3638 27.4256 15.3638C27.5166 15.8917 27.6427 16.4125 27.8039 16.9233C27.9508 17.4129 28.237 17.951 28.4997 18.4776C27.3673 19.3909 26.6645 20.45 26.4201 21.1455C25.969 22.4336 26.3245 23.0125 26.9889 23.1458C27.2879 23.2065 27.7127 23.069 28.0299 22.937C28.5005 22.7813 28.9435 22.5546 29.3452 22.2643C30.107 21.7073 30.8445 20.928 30.7951 19.8696C30.7769 19.3918 30.6443 18.9137 30.4675 18.4544C31.4244 18.0559 32.6661 17.838 34.2509 18.0188C37.644 18.4121 38.3089 20.5167 38.1815 21.393C38.0541 22.2706 37.3403 22.7609 37.1024 22.9061C36.8645 23.0513 36.7922 23.1059 36.8104 23.2154C36.8403 23.3725 36.9491 23.3658 37.1506 23.3288C37.4314 23.28 38.929 22.6156 38.9966 20.9883C39.094 18.9331 37.1043 16.6725 33.578 16.6887H33.5729C32.3487 16.6895 31.1418 16.9681 30.0435 17.5058C29.6834 16.7866 29.3111 16.1572 29.2513 15.686C29.1785 15.1357 29.1007 14.8094 29.1852 14.1574C29.271 13.5041 29.6539 12.5776 29.6474 12.5103C29.6409 12.4443 29.5617 12.1122 28.7764 12.1056C27.9912 12.099 27.3132 12.2567 27.2352 12.4613C27.096 12.8374 26.9881 13.2228 26.9127 13.6161C26.7723 14.3235 25.3409 16.8524 24.5309 18.1709C24.2631 17.6562 24.0382 17.2037 23.9901 16.8408C23.9173 16.2905 23.837 15.9642 23.9215 15.3122C24.0073 14.6589 24.3927 13.7324 24.3862 13.6651C24.3797 13.5991 24.3005 13.267 23.5153 13.2604C22.73 13.2538 22.0508 13.4116 21.9715 13.6161C21.8922 13.822 21.8063 14.305 21.649 14.7709C21.4904 15.2368 19.5836 19.4483 19.0844 20.5424C18.8283 21.0993 18.6082 21.547 18.4496 21.8492C18.4249 21.8981 18.408 21.9286 18.3963 21.9524C18.4145 21.922 18.4268 21.8915 18.4268 21.9034C18.2929 22.1634 18.2135 22.3081 18.2135 22.3081V22.3132C18.1095 22.5072 17.9939 22.6844 17.9393 22.6844C17.9029 22.6844 17.8231 22.1762 17.957 21.4806C18.243 20.017 18.9208 17.7423 18.9143 17.6631C18.9078 17.6209 19.0394 17.2272 18.4674 17.0161C17.9123 16.8168 17.7144 17.1501 17.665 17.1501C17.6156 17.1501 17.5787 17.2713 17.5787 17.2713C17.5787 17.2713 18.1921 14.7065 16.3954 14.7065C15.2735 14.7065 13.713 15.9282 12.9473 17.0341C12.4662 17.2941 11.4241 17.8578 10.3268 18.457C9.90692 18.6867 9.47562 18.9222 9.06741 19.1453C9.03751 19.1149 9.01228 19.0854 8.98108 19.055C6.79959 16.7441 2.77263 15.1104 2.94293 12.0076C3.00404 10.8766 3.40189 7.90856 10.6874 4.30294C16.6598 1.35192 21.4342 2.16119 22.2558 3.96268C23.4376 6.53361 19.7021 11.3187 13.5008 12.0076C11.1373 12.2676 10.0485 11.2539 9.73775 10.9147C9.41533 10.5584 9.36482 10.5394 9.24261 10.6054C9.0411 10.7136 9.16981 11.0289 9.24261 11.2163C9.42592 11.694 10.2406 12.4424 11.538 12.866C12.6782 13.2355 15.2961 13.5458 18.6477 12.2577C22.4126 10.8178 25.2887 6.90644 24.4294 3.55025C23.8825 1.41799 21.4535 0.182894 18.3912 0.0188246ZM16.3929 16.2196C16.4882 16.2267 16.5589 16.2625 16.5986 16.3304C16.8118 16.6881 15.8578 19.3208 15.6134 19.9134C15.2234 20.8636 14.4 23.2841 13.8994 23.1561C13.473 23.0479 13.2099 21.2022 13.8131 19.3876C14.1173 18.4743 14.7639 17.3856 15.1487 16.962C15.6099 16.4492 16.107 16.1982 16.3929 16.2196ZM29.0557 19.2045C29.1272 19.4157 29.1648 19.6375 29.17 19.8593C29.1635 21.2213 28.1834 21.7283 27.5932 21.9395C27.471 21.855 27.4871 21.5696 27.8953 20.6867C28.0539 20.3422 28.4213 19.7615 29.0557 19.2045ZM8.5875 20.7048C9.09323 22.5432 8.60631 24.165 7.42457 25.4425C6.30392 26.6581 4.73112 27.1181 4.05509 26.7314C3.32966 26.313 3.6164 24.5217 4.99966 23.2257C5.8408 22.4391 6.92654 21.7141 7.64547 21.2667C7.81058 21.1703 8.04615 21.0246 8.33867 20.8491C8.38807 20.8187 8.4123 20.8079 8.4123 20.8079C8.4669 20.7722 8.5264 20.7417 8.5875 20.7048ZM23.8987 20.9161C23.8987 20.9465 23.9063 20.9784 23.9063 21.0141C23.8985 22.0963 22.8485 22.8271 22.3726 23.1175H22.3777V23.12C22.2126 23.2045 22.0595 23.2577 21.9867 23.2154C21.9321 23.1851 22.0553 23.0711 22.0553 23.0711C22.0553 23.0711 22.9019 22.1682 23.236 21.7564C23.431 21.5149 23.6556 21.2302 23.8987 20.9161Z" fill="#292929"/>
<path d="M65 0V29H94V0H65V0ZM80.1357 24.8079C79.7085 25.6762 78.8921 26.247 77.947 26.5222C76.494 26.8558 75.105 26.6658 74.0708 26.045C73.3786 25.6206 72.8384 24.9673 72.4724 24.2149C73.2081 23.7654 73.942 23.3132 74.6778 22.8638C74.6972 22.8722 74.7547 22.9769 74.8325 23.1122C75.1133 23.5838 75.3561 23.9174 75.8333 24.1509C76.3022 24.3103 77.3298 24.4132 77.7273 23.5884C77.9701 23.1696 77.8923 21.7945 77.8923 20.3035C77.8923 17.9601 77.9034 15.6555 77.9034 13.2833H80.6157C80.6157 15.7741 80.6296 18.2714 80.6157 20.7585C80.6212 22.2828 80.7537 23.6681 80.1357 24.807V24.8079ZM91.3887 24.0416C90.4463 27.2672 85.1886 27.3719 83.0889 25.2406C82.645 24.7393 82.367 24.4771 82.102 23.8979C83.2186 23.2558 83.2186 23.2558 84.3046 22.6275C84.8949 23.5347 85.4407 24.0332 86.422 24.2371C87.7535 24.3993 89.0935 23.9424 88.7932 22.5284C88.4847 21.3729 86.0671 21.0921 84.4214 19.8569C82.7506 18.7347 82.3596 16.0086 83.7319 14.4509C84.1897 13.8745 84.9699 13.4446 85.7882 13.2379C86.0717 13.2018 86.359 13.1638 86.6425 13.1277C88.2827 13.0943 89.3084 13.527 90.0609 14.3684C90.2703 14.5806 90.4408 14.8095 90.7614 15.3062C89.8876 15.8631 89.8904 15.8575 88.6385 16.6683C88.3707 16.092 87.9278 15.7306 87.4589 15.574C86.7315 15.3534 85.8132 15.5934 85.6232 16.3625C85.5574 16.5998 85.5713 16.8203 85.676 17.2113C85.9707 17.8841 86.9603 18.176 87.8481 18.5837C90.4037 19.6206 91.2664 20.7307 91.4786 22.0539C91.6825 23.1928 91.4286 23.9313 91.3906 24.0416H91.3887Z" fill="#292929"/>
<path d="M255.5 0C251.654 0 247.966 1.52767 245.247 4.24695C242.528 6.96623 241 10.6544 241 14.5C241 18.3456 242.528 22.0338 245.247 24.753C247.966 27.4723 251.654 29 255.5 29C259.346 29 263.034 27.4723 265.753 24.753C268.472 22.0338 270 18.3456 270 14.5C270 10.6544 268.472 6.96623 265.753 4.24695C263.034 1.52767 259.346 0 255.5 0ZM259.322 26.3211H259.21C259.125 26.3259 259.041 26.3133 258.961 26.2843C258.882 26.2552 258.809 26.2101 258.748 26.152C258.691 26.0921 258.647 26.0214 258.618 25.9443C258.589 25.8671 258.576 25.7849 258.579 25.7025V24.0035C258.586 23.4393 258.591 22.8677 258.591 22.2925C258.589 21.872 258.528 21.4538 258.408 21.0504C258.296 20.6426 258.068 20.2757 257.754 19.9931C258.596 19.9118 259.424 19.7204 260.216 19.424C260.885 19.1698 261.489 18.7721 261.988 18.2591C262.479 17.7432 262.845 17.1197 263.057 16.4394C263.314 15.6063 263.437 14.7374 263.419 13.8656C263.424 13.257 263.318 12.6525 263.105 12.0821C262.889 11.5072 262.563 10.9801 262.145 10.5306C262.235 10.3039 262.301 10.0681 262.34 9.82738C262.38 9.58571 262.401 9.34163 262.401 9.09754C262.401 8.78338 262.365 8.46921 262.292 8.1635C262.226 7.84994 262.137 7.54176 262.025 7.24154C261.982 7.22488 261.937 7.21667 261.891 7.21738H261.758C261.48 7.21979 261.207 7.26571 260.944 7.3515C260.653 7.4362 260.37 7.54118 260.094 7.66567C259.82 7.78845 259.553 7.92683 259.295 8.08013C259.036 8.23358 258.806 8.381 258.603 8.51754C256.57 7.95099 254.421 7.95099 252.389 8.51754C252.162 8.36598 251.931 8.22013 251.697 8.08013C251.436 7.92555 251.164 7.78753 250.885 7.66687C250.611 7.53826 250.326 7.43277 250.034 7.3515C249.775 7.26619 249.506 7.22096 249.234 7.21738H249.101C249.055 7.21673 249.01 7.22494 248.968 7.24154C248.854 7.54218 248.761 7.85022 248.69 8.1635C248.625 8.47042 248.593 8.78338 248.592 9.09754C248.592 9.34163 248.613 9.58571 248.654 9.82738C248.693 10.0678 248.758 10.3035 248.847 10.5306C248.43 10.9807 248.104 11.5082 247.89 12.0833C247.676 12.6536 247.569 13.258 247.572 13.8668C247.555 14.7339 247.674 15.5983 247.925 16.4285C248.144 17.1088 248.509 17.7335 248.993 18.2603C249.495 18.7703 250.099 19.1666 250.765 19.4252C251.554 19.7273 252.38 19.9206 253.221 20.0003C252.986 20.2132 252.8 20.474 252.675 20.7652C252.556 21.0532 252.475 21.3554 252.433 21.6642C251.99 21.8765 251.505 21.9879 251.013 21.9905C250.557 22.0087 250.106 21.8818 249.727 21.628C249.362 21.3579 249.054 21.0198 248.818 20.6323C248.712 20.4695 248.594 20.3152 248.465 20.1707C248.329 20.0188 248.178 19.88 248.016 19.7563C247.855 19.6366 247.68 19.539 247.494 19.4663C247.31 19.3859 247.112 19.3444 246.912 19.3442C246.864 19.3454 246.816 19.3502 246.767 19.3563C246.701 19.3561 246.636 19.3642 246.572 19.3805C246.515 19.3952 246.462 19.4197 246.415 19.453C246.393 19.4649 246.375 19.4824 246.362 19.5036C246.349 19.5248 246.342 19.549 246.342 19.5738C246.347 19.6319 246.365 19.6883 246.394 19.7388C246.423 19.7893 246.463 19.8328 246.511 19.8662C246.624 19.9556 246.717 20.0245 246.792 20.0728L246.828 20.0982C246.989 20.2227 247.143 20.3568 247.289 20.5006C247.425 20.619 247.547 20.7531 247.652 20.8993C247.761 21.0431 247.855 21.1966 247.931 21.3597C248.019 21.5216 248.112 21.7077 248.21 21.9192C248.437 22.4919 248.841 22.9765 249.363 23.3027C249.91 23.5963 250.524 23.7425 251.146 23.7268C251.357 23.7268 251.568 23.7148 251.777 23.6906C251.985 23.6568 252.192 23.6217 252.399 23.5806V25.6868C252.403 25.7717 252.389 25.8564 252.358 25.9355C252.327 26.0145 252.279 26.0861 252.218 26.1455C252.157 26.2049 252.085 26.2509 252.005 26.2803C251.925 26.3097 251.84 26.322 251.755 26.3163H251.68C248.863 25.406 246.462 23.5196 244.912 20.9967C243.362 18.4739 242.763 15.4804 243.224 12.5553C243.684 9.63018 245.174 6.96568 247.425 5.0416C249.676 3.11752 252.54 2.06029 255.501 2.06029C258.462 2.06029 261.326 3.11752 263.577 5.0416C265.828 6.96568 267.318 9.63018 267.779 12.5553C268.239 15.4804 267.641 18.4739 266.09 20.9967C264.54 23.5196 262.14 25.406 259.322 26.3163V26.3211Z" fill="#292929"/>
<path d="M420.683 18.8629C419.94 18.8629 419.51 19.5687 419.51 20.5102C419.51 21.4604 419.957 22.1289 420.689 22.1289C421.432 22.1289 421.856 21.4245 421.856 20.4815C421.856 19.6132 421.438 18.8629 420.683 18.8629V18.8629Z" fill="#292929"/>
<path d="M422.375 0H410.875C410.113 0 409.381 0.302901 408.842 0.842068C408.303 1.38123 408 2.1125 408 2.875V25.875C408 26.6375 408.303 27.3688 408.842 27.9079C409.381 28.4471 410.113 28.75 410.875 28.75H428.125C428.887 28.75 429.619 28.4471 430.158 27.9079C430.697 27.3688 431 26.6375 431 25.875V8.625L422.375 0ZM413.782 21.137C413.782 22.5184 413.119 23 412.057 23C411.804 23 411.473 22.9583 411.256 22.885L411.38 22.0009C411.529 22.0513 411.723 22.0872 411.942 22.0872C412.4 22.0872 412.689 21.8787 412.689 21.1241V18.0737H413.783V21.137H413.782ZM415.879 22.9928C415.325 22.9928 414.778 22.8491 414.506 22.6981L414.729 21.7911C415.022 21.942 415.478 22.0944 415.945 22.0944C416.448 22.0944 416.713 21.8845 416.713 21.5697C416.713 21.2664 416.484 21.0939 415.902 20.8854C415.094 20.6051 414.569 20.1581 414.569 19.4537C414.569 18.6257 415.261 17.9917 416.405 17.9917C416.951 17.9917 417.352 18.1068 417.643 18.2376L417.396 19.1216C417.201 19.0282 416.856 18.8916 416.382 18.8916C415.908 18.8916 415.676 19.1073 415.676 19.3588C415.676 19.6679 415.949 19.8059 416.578 20.0431C417.434 20.3593 417.837 20.8049 417.837 21.4892C417.838 22.3028 417.21 22.9928 415.879 22.9928ZM420.631 23C419.192 23 418.351 21.9147 418.351 20.5333C418.351 19.0785 419.28 17.9917 420.712 17.9917C422.2 17.9917 423.013 19.1072 423.013 20.4456C423.012 22.0369 422.049 23 420.631 23V23ZM427.743 22.9209H426.59L425.553 21.0493C425.243 20.4942 424.963 19.9232 424.712 19.3387L424.689 19.3459C424.72 19.9856 424.734 20.6698 424.734 21.4619V22.9224H423.726V18.0737H425.007L426.015 19.8504C426.302 20.3593 426.59 20.9645 426.808 21.5108H426.828C426.756 20.8711 426.735 20.217 426.735 19.4896V18.0737H427.744V22.9209H427.743ZM422.375 10.0625H420.938V2.875L428.125 10.0625H422.375Z" fill="#292929"/>
<path d="M531.958 0.0161269L515.307 0.690171C515.294 0.690662 515.281 0.69154 515.268 0.692804C515.259 0.693577 515.249 0.694455 515.24 0.695437C514.903 0.719429 514.589 0.871264 514.359 1.1204C514.129 1.36953 514.001 1.69747 514 2.03826V20.7693C514 21.568 514.235 22.3486 514.672 23.0126L518.224 28.3997C518.354 28.5962 518.532 28.7549 518.741 28.8598C518.951 28.9647 519.184 29.0121 519.417 28.9974L540.75 27.6493C541.089 27.6278 541.406 27.4767 541.638 27.2268C541.871 26.9768 542 26.6468 542 26.3038V5.40848C542 5.07102 541.874 4.74595 541.648 4.49746C541.595 4.42593 541.527 4.36595 541.451 4.32105L541.448 4.31842C541.37 4.26116 541.286 4.21261 541.198 4.17361L535.729 1.01929L535.773 1.04826C534.656 0.280662 533.314 -0.0835025 531.966 0.0161269H531.958ZM532.034 1.36158C532.042 1.36172 532.049 1.36172 532.057 1.36158C533.107 1.28257 534.153 1.56414 535.023 2.16201C535.038 2.17225 535.053 2.18191 535.068 2.19097L538.432 4.13148L520.474 4.71863L517.292 1.95927L532.034 1.36158ZM539.333 6.80132V25.0374L520.667 26.2169V7.40954L539.333 6.80132ZM537.255 9.45537C535.903 9.53626 534.543 9.60305 533.188 9.7055C532.742 9.73921 532.411 10.1286 532.357 10.556C532.331 10.7555 532.385 10.8584 532.609 10.8745C533.02 10.9056 533.428 10.9642 533.854 11.0141V18.9262C533.729 18.7442 533.66 18.6481 533.596 18.5497C531.85 15.8818 530.095 13.2188 528.365 10.5402C528.103 10.1357 527.859 9.94108 527.336 10.0004C526.113 10.1366 524.88 10.1771 523.654 10.2769C522.974 10.3321 522.57 10.9343 522.753 11.5881C523.213 11.6285 523.676 11.67 524.151 11.7118V23.0784C523.839 23.1674 523.528 23.2675 523.214 23.3444C522.894 23.4225 522.744 23.6401 522.682 23.9394C522.633 24.1794 522.691 24.3006 522.982 24.2791C523.98 24.2076 524.984 24.1633 525.984 24.1027C526.398 24.0784 526.812 24.07 527.219 24.0026C527.773 23.9096 528.075 23.5678 528.135 23.0205C527.642 22.91 527.146 22.7884 526.646 22.6914C526.423 22.6482 526.348 22.556 526.349 22.3228C526.357 19.6859 526.355 17.0475 526.357 14.4106C526.357 14.3244 526.375 14.2363 526.391 14.0921C526.468 14.1959 526.499 14.2384 526.529 14.2843C527.878 16.4021 529.223 18.5252 530.581 20.6376C531.165 21.5463 531.763 22.4454 532.378 23.3338C532.823 23.9782 533.476 24.1827 534.219 24.0263C534.683 23.9279 535.129 23.7401 535.583 23.5945C535.837 23.5136 535.91 23.348 535.909 23.0784C535.9 19.204 535.904 15.3308 535.904 11.4564C535.904 10.7352 535.901 10.7358 536.609 10.5876C537.26 10.4514 537.451 10.1294 537.255 9.45537Z" fill="#292929"/>
<path d="M690.21 19.6371C689.237 19.6371 687.993 19.2035 687.389 18.8414L686.807 21.1851C687.602 21.6187 688.832 21.9205 690.21 21.9205C693.221 21.9205 694.777 20.478 694.777 18.5115C694.754 16.9634 693.915 15.9471 691.911 15.2627C690.623 14.8065 690.218 14.5481 690.218 14.0541C690.218 13.5167 690.666 13.1924 691.462 13.1924C692.367 13.1924 693.266 13.5394 693.745 13.7976L694.326 11.5351C693.679 11.2108 692.582 10.9317 691.351 10.9317C688.745 10.9317 687.065 12.4194 687.065 14.3785C687.042 15.6304 687.881 16.8165 690.063 17.5461C691.285 17.959 691.609 18.2154 691.609 18.7529C691.609 19.2921 691.196 19.6371 690.21 19.6371Z" fill="#292929"/>
<path d="M679.472 16.5147C679.774 16.5581 680.164 16.5732 680.59 16.5732C682.528 16.5732 684.192 16.1018 685.304 15.0497C686.173 14.2314 686.644 13.0227 686.644 11.603C686.644 10.1813 686.026 8.97266 685.091 8.24294C684.125 7.46233 682.683 7.07959 680.656 7.07959C678.654 7.07959 677.232 7.21173 676.223 7.38131V21.7075H679.472V16.5147H679.472ZM679.478 9.68732C679.708 9.62125 680.164 9.55523 680.826 9.55523C682.468 9.55523 683.39 10.3491 683.398 11.6822C683.398 13.1717 682.314 14.0542 680.569 14.0542C680.098 14.0542 679.759 14.0335 679.478 13.973V9.68732V9.68732Z" fill="#292929"/>
<path d="M671 0V29H700V0H671ZM698.206 27.2062H672.794V1.79381H698.206V27.2062Z" fill="#292929"/>
<path fill-rule="evenodd" clip-rule="evenodd" d="M626.868 9.78644C626.642 10.6956 625.268 15.9399 625.268 15.9399H628.63C628.63 15.9399 627.135 10.6956 626.912 9.78644H626.868Z" fill="#292929"/>
<path fill-rule="evenodd" clip-rule="evenodd" d="M615 0V29H644V0H615ZM630.298 22.4097L629.124 18.5145H624.777L623.689 22.4097H620.128L624.777 7.22062H629.279L633.988 22.4097H630.298ZM638.759 22.4097H635.329V11.3945H638.759V22.4097ZM637.023 10.0387C635.944 10.0387 635.218 9.26885 635.242 8.3267C635.218 7.3335 635.944 6.59027 637.05 6.59027C638.156 6.59027 638.846 7.33343 638.872 8.3267C638.872 9.26885 638.156 10.0387 637.023 10.0387Z" fill="#292929"/>
<path d="M727 0H800V25.0281H763.5V29.2H747.279V25.0281H727V0ZM731.055 20.8561H739.165V8.3439H743.221V20.8561H747.279V4.17195H731.052V20.8561H731.055ZM751.335 4.17195V25.0281H759.445V20.8561H767.555V4.17195H751.335V4.17195ZM771.61 4.17195V20.8561H779.721V8.3439H783.779V20.8561H787.831V8.3439H791.89V20.8561H795.941V4.17195H771.61V4.17195Z" fill="#292929"/>
<path d="M763.5 17.1551H759.85V8.03009H763.5V17.1551Z" fill="#292929"/>
<path d="M153.462 14.5L145.096 0H135.597L132.541 5.29808H142.037L147.345 14.5L142.037 23.7019H132.541L135.597 29H145.096L153.462 14.5Z" fill="#292929"/>
<path d="M131.426 23.7019L126.116 14.5L131.426 5.29808L134.482 0H128.365L120 14.5L128.365 29H134.482L131.426 23.7019Z" fill="#292929"/>
<path d="M371.792 20.2385C372.879 20.1429 373.721 19.1681 373.666 18.0035C373.609 16.8388 372.673 15.9036 371.531 15.9036H371.455C370.276 15.9431 369.357 16.9535 369.395 18.1577C369.432 18.768 369.677 19.265 370.012 19.6268C368.702 22.2237 366.736 24.1325 363.757 25.7367C361.753 26.8045 359.637 27.2072 357.576 26.9205C355.854 26.6733 354.506 25.8884 353.681 24.6294C352.446 22.7194 352.333 20.6589 353.362 18.5973C354.114 17.1077 355.236 16.0195 355.986 15.4843C355.799 14.9887 355.574 14.149 355.461 13.5195C349.916 17.5677 350.48 23.1029 352.165 25.7189C353.42 27.6277 355.986 28.8484 358.795 28.8484C359.544 28.8484 360.332 28.7923 361.099 28.6012C365.97 27.6468 369.659 24.6689 371.775 20.278L371.792 20.2385V20.2385ZM378.478 15.4652C375.577 11.9904 371.305 10.0816 366.435 10.0816H365.797C365.481 9.37572 364.751 8.93611 363.926 8.93611H363.869C362.691 8.93611 361.772 9.96823 361.81 11.1698C361.848 12.3141 362.803 13.2697 363.946 13.2697H364.038C364.882 13.2315 365.612 12.6963 365.911 11.9331H366.605C369.491 11.9331 372.224 12.7919 374.715 14.4713C376.624 15.7506 377.993 17.4301 378.761 19.4357C379.433 21.0769 379.397 22.6811 378.704 24.0191C377.637 26.1177 375.838 27.2263 373.46 27.2263C371.961 27.2263 370.501 26.7485 369.751 26.4057C369.302 26.7854 368.552 27.4161 368.008 27.7984C369.656 28.5604 371.324 29 372.934 29C376.587 29 379.301 26.9014 380.332 24.8766C381.454 22.5856 381.362 18.7298 378.495 15.427L378.478 15.4652V15.4652ZM359.113 20.924C359.149 22.0695 360.104 23.0239 361.248 23.0239H361.323C362.522 22.9857 363.439 21.9752 363.383 20.7711C363.383 19.6256 362.409 18.6724 361.267 18.6724H361.19C361.115 18.6724 361.004 18.6724 360.909 18.7094C359.355 16.0361 358.699 13.1716 358.944 10.0816C359.093 7.75236 359.843 5.72762 361.19 4.0482C362.314 2.61598 364.431 1.90878 365.873 1.87183C369.919 1.7941 371.605 6.93176 371.735 8.97434L373.608 9.54647C373.176 3.28494 369.357 0 365.705 0C362.277 0 359.113 2.53952 357.838 6.2628C356.096 11.2272 357.239 15.9991 359.374 19.818C359.188 20.0664 359.075 20.5048 359.113 20.924V20.924Z" fill="#292929"/>
<path d="M472.5 26.1C475.577 26.1 478.527 24.8779 480.702 22.7024C482.878 20.527 484.1 17.5765 484.1 14.5C484.1 11.4235 482.878 8.47298 480.702 6.29756C478.527 4.12214 475.577 2.9 472.5 2.9C469.423 2.9 466.473 4.12214 464.298 6.29756C462.122 8.47298 460.9 11.4235 460.9 14.5C460.9 17.5765 462.122 20.527 464.298 22.7024C466.473 24.8779 469.423 26.1 472.5 26.1V26.1ZM472.5 29C464.492 29 458 22.5084 458 14.5C458 6.49165 464.492 0 472.5 0C480.508 0 487 6.49165 487 14.5C487 22.5084 480.508 29 472.5 29Z" fill="#292929"/>
<path d="M477.233 9.90786L476.066 9.82086L475.207 8.96681L476.066 9.82231C476.066 9.82231 477.182 9.90351 477.233 9.90931C477.286 9.91221 477.349 9.95281 477.36 10.0253L478.942 20.7336L474.462 21.7022L466.193 20.155C466.193 20.155 467.254 11.948 467.295 11.658C467.347 11.2752 467.36 11.2622 467.766 11.136L469.074 10.73C469.355 9.54101 470.248 7.20361 472.119 7.20361C472.362 7.20361 472.645 7.33411 472.873 7.63716C472.895 7.63556 472.918 7.63459 472.941 7.63426C473.744 7.63426 474.199 8.31866 474.459 9.06251L474.893 8.92911C474.956 8.91109 475.023 8.90616 475.088 8.91461L477.233 9.90786ZM472.941 12.3845C472.941 12.3845 472.568 12.167 471.811 12.167C469.849 12.167 468.878 13.4778 468.878 14.8321C468.878 16.4416 470.483 16.4851 470.483 17.4638C470.484 17.5392 470.469 17.614 470.44 17.6835C470.411 17.7531 470.368 17.816 470.313 17.8683C470.259 17.9207 470.195 17.9615 470.124 17.9882C470.054 18.0148 469.978 18.0269 469.903 18.0235C469.274 18.0235 468.528 17.3841 468.528 17.3841L468.149 18.6398C468.149 18.6398 468.874 19.5228 470.295 19.5228C471.476 19.5228 472.354 18.6325 472.354 17.2492C472.354 15.4904 470.396 15.2033 470.396 14.4522C470.396 14.3144 470.441 13.7692 471.311 13.7692C471.906 13.7692 472.388 14.0273 472.388 14.0273L472.941 12.3845V12.3845ZM474.002 9.20171C473.824 8.66086 473.548 8.18961 473.135 8.13886C473.238 8.43321 473.302 8.80586 473.302 9.26841V9.41921L474.002 9.20171ZM472.622 8.23021C472.167 8.42596 471.645 8.94361 471.366 10.0181L472.812 9.57146V9.49026C472.812 8.93201 472.736 8.51876 472.623 8.22876L472.622 8.23021ZM472.066 7.70386C470.724 7.70386 469.968 9.46706 469.651 10.5488L470.793 10.195C471.065 8.77686 471.707 8.06636 472.306 7.78506C472.236 7.7342 472.153 7.70586 472.066 7.70386V7.70386Z" fill="#292929"/>
<path d="M197.5 11.5944C197.114 11.5944 196.731 11.6695 196.374 11.8155C196.018 11.9615 195.693 12.1755 195.42 12.4452C195.147 12.715 194.931 13.0352 194.783 13.3877C194.635 13.7401 194.559 14.1179 194.559 14.4993C194.559 14.8808 194.635 15.2586 194.783 15.611C194.931 15.9635 195.147 16.2837 195.42 16.5535C195.693 16.8232 196.018 17.0372 196.374 17.1832C196.731 17.3292 197.114 17.4043 197.5 17.4043C197.886 17.4043 198.269 17.3292 198.626 17.1832C198.982 17.0372 199.307 16.8232 199.58 16.5535C199.853 16.2837 200.069 15.9635 200.217 15.611C200.365 15.2586 200.441 14.8808 200.441 14.4993C200.441 14.1179 200.365 13.7401 200.217 13.3877C200.069 13.0352 199.853 12.715 199.58 12.4452C199.307 12.1755 198.982 11.9615 198.626 11.8155C198.269 11.6695 197.886 11.5944 197.5 11.5944ZM189.261 20.278L188.612 20.115C183.775 18.9077 181 16.8583 181 14.4939C181 12.1295 183.775 10.0801 188.612 8.87278L189.261 8.71117L189.444 9.34676C189.934 11.0141 190.561 12.6392 191.318 14.206L191.457 14.4953L191.318 14.7845C190.559 16.3508 189.933 17.976 189.444 19.6438L189.261 20.278ZM188.311 10.3572C184.634 11.3771 182.378 12.9375 182.378 14.4939C182.378 16.0489 184.634 17.6094 188.311 18.6307C188.761 17.2181 189.303 15.8363 189.936 14.4939C189.303 13.1519 188.76 11.7699 188.311 10.3572ZM205.739 20.278L205.556 19.6411C205.067 17.9738 204.439 16.3491 203.681 14.7832L203.542 14.4939L203.681 14.2046C204.439 12.6382 205.066 11.013 205.556 9.3454L205.739 8.70981L206.389 8.87142C211.225 10.0788 214 12.1281 214 14.4939C214 16.8597 211.225 18.9077 206.389 20.115L205.739 20.278ZM205.064 14.4939C205.724 15.905 206.27 17.2916 206.689 18.6307C210.367 17.6094 212.622 16.0489 212.622 14.4939C212.622 12.9375 210.366 11.3785 206.689 10.3572C206.24 11.7699 205.697 13.1518 205.064 14.4939ZM188.301 10.3504L188.118 9.71615C186.759 4.98186 187.171 1.58935 189.25 0.405098C191.289 -0.757426 194.563 0.615602 197.994 4.09367L198.461 4.56764L197.994 5.04161C196.775 6.29324 195.661 7.64084 194.663 9.07106L194.478 9.33317L194.155 9.36034C192.4 9.49696 190.659 9.77401 188.95 10.1888L188.301 10.3504ZM190.908 1.34625C190.54 1.34625 190.214 1.42502 189.939 1.5812C188.572 2.35939 188.33 5.0647 189.272 8.71524C190.737 8.39328 192.222 8.166 193.717 8.03484C194.58 6.82327 195.523 5.66911 196.539 4.57986C194.394 2.51693 192.363 1.34625 190.908 1.34625ZM204.093 28.9997C204.092 28.9997 204.092 28.9997 204.093 28.9997C202.134 28.9997 199.617 27.5424 197.006 24.8942L196.539 24.4202L197.006 23.9462C198.225 22.6942 199.338 21.3461 200.335 19.9154L200.521 19.6533L200.843 19.6261C202.598 19.4903 204.34 19.2137 206.05 18.7991L206.699 18.6374L206.883 19.273C208.24 24.0046 207.829 27.3985 205.75 28.5814C205.245 28.8634 204.673 29.0077 204.093 28.9997ZM198.461 24.408C200.606 26.4709 202.637 27.6416 204.092 27.6416C204.459 27.6416 204.788 27.5628 205.061 27.4066C206.428 26.6284 206.671 23.9218 205.728 20.2712C204.262 20.5936 202.777 20.8209 201.281 20.9516C200.42 22.164 199.477 23.3187 198.461 24.408ZM206.699 10.3504L206.05 10.1888C204.34 9.77281 202.598 9.49574 200.843 9.36034L200.521 9.33317L200.335 9.07106C199.339 7.64039 198.226 6.29274 197.006 5.04161L196.539 4.56764L197.006 4.09367C200.436 0.61696 203.708 -0.756068 205.75 0.405098C207.829 1.58935 208.241 4.98186 206.883 9.7148L206.699 10.3504ZM201.281 8.03484C202.851 8.17608 204.343 8.4056 205.728 8.71524C206.671 5.0647 206.428 2.35939 205.061 1.5812C203.703 0.805734 201.149 1.99406 198.461 4.57986C199.477 5.66916 200.419 6.82331 201.281 8.03484ZM190.908 28.9997C190.328 29.008 189.755 28.8636 189.25 28.5814C187.171 27.3985 186.759 24.006 188.118 19.273L188.3 18.6374L188.949 18.7991C190.537 19.1943 192.289 19.4727 194.153 19.6261L194.476 19.6533L194.661 19.9154C195.658 21.3459 196.772 22.694 197.991 23.9462L198.458 24.4202L197.991 24.8942C195.381 27.5424 192.865 28.9997 190.908 28.9997ZM189.272 20.2712C188.329 23.9218 188.572 26.6284 189.939 27.4066C191.296 28.1712 193.848 26.9924 196.539 24.408C195.523 23.3179 194.581 22.1633 193.717 20.9516C192.222 20.821 190.737 20.5937 189.272 20.2712ZM197.5 21.1241C196.368 21.1241 195.205 21.0752 194.041 20.9801L193.717 20.953L193.532 20.6909C192.873 19.756 192.254 18.7945 191.675 17.809C191.099 16.8227 190.564 15.8132 190.072 14.7832L189.936 14.4939L190.072 14.2046C190.564 13.1746 191.099 12.1651 191.675 11.1788C192.245 10.2064 192.87 9.23675 193.532 8.29695L193.717 8.03484L194.041 8.00768C196.343 7.81483 198.658 7.81483 200.961 8.00768L201.283 8.03484L201.467 8.29695C202.786 10.1671 203.943 12.1433 204.928 14.2046L205.067 14.4939L204.928 14.7832C203.946 16.8458 202.788 18.8221 201.467 20.6909L201.283 20.953L200.961 20.9801C199.796 21.0752 198.632 21.1241 197.5 21.1241ZM194.479 19.6519C196.514 19.8027 198.486 19.8027 200.522 19.6519C201.659 18.0103 202.669 16.2861 203.542 14.4939C202.67 12.7007 201.66 10.9762 200.521 9.33589C198.51 9.18514 196.49 9.18514 194.479 9.33589C193.339 10.9759 192.329 12.7004 191.458 14.4939C192.332 16.2859 193.342 18.0101 194.479 19.6519Z" fill="#292929"/>
</svg>
