<svg width="1259" height="30" viewBox="0 0 1259 30" fill="none" xmlns="http://www.w3.org/2000/svg">
<path d="M354.17 22.3516L342.033 29V23.8218L349.595 19.7935L354.17 22.3516H354.17ZM355 21.6235V7.71943L350.559 10.2018V19.1384L355 21.6235V21.6235ZM328.83 22.3516L340.967 29V23.8218L333.405 19.7935L328.83 22.3516H328.83ZM328 21.6235V7.71943L332.441 10.2018V19.1384L328 21.6235V21.6235ZM328.52 6.81981L340.967 0V5.00668L332.993 9.25421L332.932 9.288L328.52 6.81981V6.81981ZM354.48 6.81981L342.033 0V5.00668L350.007 9.25435L350.068 9.28814L354.48 6.81995L354.48 6.81981ZM340.967 22.644L333.507 18.6718V10.8006L340.967 14.9724V22.644H340.967ZM342.033 22.644L349.493 18.6718V10.8006L342.033 14.9724V22.644V22.644ZM334.012 9.88965L341.501 5.90044L348.991 9.88965L341.501 14.0783L334.012 9.88965Z" fill="#292929"/>
<path d="M66.3912 0.0188246C64.5539 -0.0796173 62.4881 0.206253 60.4674 0.918437C57.2562 2.04948 53.7831 3.82846 51.2857 6.14598C48.319 8.90431 47.8431 11.3049 48.0381 12.3092C48.7324 15.8713 53.6807 18.1951 55.6607 19.9134C55.5632 19.9675 55.4723 20.0141 55.3865 20.0629C54.3932 20.5525 50.7086 22.4761 49.7648 24.5455C48.6987 26.8921 49.9411 28.5716 50.7576 28.8013C53.3044 29.5034 55.8247 28.2763 57.2248 26.203C58.6263 24.1283 58.4575 21.4206 57.8114 20.1866C57.8049 20.1682 57.7925 20.1561 57.786 20.1377C58.0421 19.9859 58.3029 19.8332 58.5655 19.6814C59.0712 19.3845 59.5647 19.1134 59.9976 18.8772C59.7532 19.5305 59.577 20.3185 59.4847 21.4549C59.3755 22.7852 59.9287 24.5064 60.6476 25.1848C60.9648 25.4817 61.348 25.4889 61.5846 25.4889C62.4257 25.4889 62.8037 24.7994 63.2224 23.9758C63.7398 22.9715 64.1974 21.8054 64.1974 21.8054C64.1974 21.8054 63.6262 24.9605 65.1927 24.9605C65.7648 24.9605 66.3383 24.2295 66.5944 23.8547V23.8598C66.5944 23.8598 66.6038 23.8365 66.635 23.7877C66.6961 23.6966 66.7264 23.6433 66.7264 23.6433V23.6253C66.9578 23.232 67.4652 22.3313 68.2271 20.8439C69.2138 18.921 70.1568 16.5186 70.1568 16.5186C70.2478 17.0465 70.3739 17.5673 70.5352 18.0781C70.7055 18.6522 71.0668 19.2817 71.3528 19.8928C71.1214 20.2069 70.9795 20.3877 70.9795 20.3877C70.9795 20.393 70.9832 20.3979 70.9871 20.4006C70.8038 20.6421 70.596 20.9011 70.3828 21.1558C69.6028 22.0757 68.6755 23.1297 68.5546 23.4319C68.4077 23.7883 68.4452 24.0535 68.7247 24.2594C68.9314 24.4164 69.2998 24.4405 69.682 24.4115C70.3827 24.3626 70.8762 24.1923 71.1141 24.0841C71.5522 23.9284 71.966 23.7141 72.343 23.4448C73.1049 22.8879 73.5692 22.0891 73.5263 21.0373C73.5016 20.4566 73.3108 19.8746 73.0794 19.3308C73.147 19.2345 73.2213 19.1322 73.2876 19.0293C74.4941 17.2819 75.4256 15.3638 75.4256 15.3638C75.5166 15.8917 75.6427 16.4125 75.8039 16.9233C75.9508 17.4129 76.237 17.951 76.4997 18.4776C75.3673 19.3909 74.6645 20.45 74.4201 21.1455C73.969 22.4336 74.3245 23.0125 74.9889 23.1458C75.2879 23.2065 75.7127 23.069 76.0299 22.937C76.5005 22.7813 76.9435 22.5546 77.3452 22.2643C78.107 21.7073 78.8445 20.928 78.7951 19.8696C78.7769 19.3918 78.6443 18.9137 78.4675 18.4544C79.4244 18.0559 80.6661 17.838 82.2509 18.0188C85.644 18.4121 86.3089 20.5167 86.1815 21.393C86.0541 22.2706 85.3403 22.7609 85.1024 22.9061C84.8645 23.0513 84.7922 23.1059 84.8104 23.2154C84.8403 23.3725 84.9491 23.3658 85.1506 23.3288C85.4314 23.28 86.929 22.6156 86.9966 20.9883C87.094 18.9331 85.1043 16.6725 81.578 16.6887H81.5729C80.3487 16.6895 79.1418 16.9681 78.0435 17.5058C77.6834 16.7866 77.3111 16.1572 77.2513 15.686C77.1785 15.1357 77.1007 14.8094 77.1852 14.1574C77.271 13.5041 77.6539 12.5776 77.6474 12.5103C77.6409 12.4443 77.5617 12.1122 76.7764 12.1056C75.9912 12.099 75.3132 12.2567 75.2352 12.4613C75.096 12.8374 74.9881 13.2228 74.9127 13.6161C74.7723 14.3235 73.3409 16.8524 72.5309 18.1709C72.2631 17.6562 72.0382 17.2037 71.9901 16.8408C71.9173 16.2905 71.837 15.9642 71.9215 15.3122C72.0073 14.6589 72.3927 13.7324 72.3862 13.6651C72.3797 13.5991 72.3005 13.267 71.5153 13.2604C70.73 13.2538 70.0508 13.4116 69.9715 13.6161C69.8922 13.822 69.8063 14.305 69.649 14.7709C69.4904 15.2368 67.5836 19.4483 67.0844 20.5424C66.8283 21.0993 66.6082 21.547 66.4496 21.8492C66.4249 21.8981 66.408 21.9286 66.3963 21.9524C66.4145 21.922 66.4268 21.8915 66.4268 21.9034C66.2929 22.1634 66.2135 22.3081 66.2135 22.3081V22.3132C66.1095 22.5072 65.9939 22.6844 65.9393 22.6844C65.9029 22.6844 65.8231 22.1762 65.957 21.4806C66.243 20.017 66.9208 17.7423 66.9143 17.6631C66.9078 17.6209 67.0394 17.2272 66.4674 17.0161C65.9123 16.8168 65.7144 17.1501 65.665 17.1501C65.6156 17.1501 65.5787 17.2713 65.5787 17.2713C65.5787 17.2713 66.1921 14.7065 64.3954 14.7065C63.2735 14.7065 61.713 15.9282 60.9473 17.0341C60.4662 17.2941 59.4241 17.8578 58.3268 18.457C57.9069 18.6867 57.4756 18.9222 57.0674 19.1453C57.0375 19.1149 57.0123 19.0854 56.9811 19.055C54.7996 16.7441 50.7726 15.1104 50.9429 12.0076C51.004 10.8766 51.4019 7.90856 58.6874 4.30294C64.6598 1.35192 69.4342 2.16119 70.2558 3.96268C71.4376 6.53361 67.7021 11.3187 61.5008 12.0076C59.1373 12.2676 58.0485 11.2539 57.7377 10.9147C57.4153 10.5584 57.3648 10.5394 57.2426 10.6054C57.0411 10.7136 57.1698 11.0289 57.2426 11.2163C57.4259 11.694 58.2406 12.4424 59.538 12.866C60.6782 13.2355 63.2961 13.5458 66.6477 12.2577C70.4126 10.8178 73.2887 6.90644 72.4294 3.55025C71.8825 1.41799 69.4535 0.182894 66.3912 0.0188246ZM64.3929 16.2196C64.4882 16.2267 64.5589 16.2625 64.5986 16.3304C64.8118 16.6881 63.8578 19.3208 63.6134 19.9134C63.2234 20.8636 62.4 23.2841 61.8994 23.1561C61.473 23.0479 61.2099 21.2022 61.8131 19.3876C62.1173 18.4743 62.7639 17.3856 63.1487 16.962C63.6099 16.4492 64.107 16.1982 64.3929 16.2196ZM77.0557 19.2045C77.1272 19.4157 77.1648 19.6375 77.17 19.8593C77.1635 21.2213 76.1834 21.7283 75.5932 21.9395C75.471 21.855 75.4871 21.5696 75.8953 20.6867C76.0539 20.3422 76.4213 19.7615 77.0557 19.2045ZM56.5875 20.7048C57.0932 22.5432 56.6063 24.165 55.4246 25.4425C54.3039 26.6581 52.7311 27.1181 52.0551 26.7314C51.3297 26.313 51.6164 24.5217 52.9997 23.2257C53.8408 22.4391 54.9265 21.7141 55.6455 21.2667C55.8106 21.1703 56.0462 21.0246 56.3387 20.8491C56.3881 20.8187 56.4123 20.8079 56.4123 20.8079C56.4669 20.7722 56.5264 20.7417 56.5875 20.7048ZM71.8987 20.9161C71.8987 20.9465 71.9063 20.9784 71.9063 21.0141C71.8985 22.0963 70.8485 22.8271 70.3726 23.1175H70.3777V23.12C70.2126 23.2045 70.0595 23.2577 69.9867 23.2154C69.9321 23.1851 70.0553 23.0711 70.0553 23.0711C70.0553 23.0711 70.9019 22.1682 71.236 21.7564C71.431 21.5149 71.6556 21.2302 71.8987 20.9161Z" fill="#292929"/>
<path d="M135 0V29H164V0H135V0ZM150.136 24.8079C149.708 25.6762 148.892 26.247 147.947 26.5222C146.494 26.8558 145.105 26.6658 144.071 26.045C143.379 25.6206 142.838 24.9673 142.472 24.2149C143.208 23.7654 143.942 23.3132 144.678 22.8638C144.697 22.8722 144.755 22.9769 144.833 23.1122C145.113 23.5838 145.356 23.9174 145.833 24.1509C146.302 24.3103 147.33 24.4132 147.727 23.5884C147.97 23.1696 147.892 21.7945 147.892 20.3035C147.892 17.9601 147.903 15.6555 147.903 13.2833H150.616C150.616 15.7741 150.63 18.2714 150.616 20.7585C150.621 22.2828 150.754 23.6681 150.136 24.807V24.8079ZM161.389 24.0416C160.446 27.2672 155.189 27.3719 153.089 25.2406C152.645 24.7393 152.367 24.4771 152.102 23.8979C153.219 23.2558 153.219 23.2558 154.305 22.6275C154.895 23.5347 155.441 24.0332 156.422 24.2371C157.754 24.3993 159.093 23.9424 158.793 22.5284C158.485 21.3729 156.067 21.0921 154.421 19.8569C152.751 18.7347 152.36 16.0086 153.732 14.4509C154.19 13.8745 154.97 13.4446 155.788 13.2379C156.072 13.2018 156.359 13.1638 156.643 13.1277C158.283 13.0943 159.308 13.527 160.061 14.3684C160.27 14.5806 160.441 14.8095 160.761 15.3062C159.888 15.8631 159.89 15.8575 158.638 16.6683C158.371 16.092 157.928 15.7306 157.459 15.574C156.731 15.3534 155.813 15.5934 155.623 16.3625C155.557 16.5998 155.571 16.8203 155.676 17.2113C155.971 17.8841 156.96 18.176 157.848 18.5837C160.404 19.6206 161.266 20.7307 161.479 22.0539C161.682 23.1928 161.429 23.9313 161.391 24.0416H161.389Z" fill="#292929"/>
<path d="M436.462 14.5L428.096 0H418.597L415.541 5.29808H425.037L430.345 14.5L425.037 23.7019H415.541L418.597 29H428.096L436.462 14.5Z" fill="#292929"/>
<path d="M414.426 23.7019L409.116 14.5L414.426 5.29808L417.482 0H411.365L403 14.5L411.365 29H417.482L414.426 23.7019Z" fill="#292929"/>
<path d="M585.792 20.2385C586.879 20.1429 587.721 19.1681 587.666 18.0035C587.609 16.8388 586.673 15.9036 585.531 15.9036H585.455C584.276 15.9431 583.357 16.9535 583.395 18.1577C583.432 18.768 583.677 19.265 584.012 19.6268C582.702 22.2237 580.736 24.1325 577.757 25.7367C575.753 26.8045 573.637 27.2072 571.576 26.9205C569.854 26.6733 568.506 25.8884 567.681 24.6294C566.446 22.7194 566.333 20.6589 567.362 18.5973C568.114 17.1077 569.236 16.0195 569.986 15.4843C569.799 14.9887 569.574 14.149 569.461 13.5195C563.916 17.5677 564.48 23.1029 566.165 25.7189C567.42 27.6277 569.986 28.8484 572.795 28.8484C573.544 28.8484 574.332 28.7923 575.099 28.6012C579.97 27.6468 583.659 24.6689 585.775 20.278L585.792 20.2385V20.2385ZM592.478 15.4652C589.577 11.9904 585.305 10.0816 580.435 10.0816H579.797C579.481 9.37572 578.751 8.93611 577.926 8.93611H577.869C576.691 8.93611 575.772 9.96823 575.81 11.1698C575.848 12.3141 576.803 13.2697 577.946 13.2697H578.038C578.882 13.2315 579.612 12.6963 579.911 11.9331H580.605C583.491 11.9331 586.224 12.7919 588.715 14.4713C590.624 15.7506 591.993 17.4301 592.761 19.4357C593.433 21.0769 593.397 22.6811 592.704 24.0191C591.637 26.1177 589.838 27.2263 587.46 27.2263C585.961 27.2263 584.501 26.7485 583.751 26.4057C583.302 26.7854 582.552 27.4161 582.008 27.7984C583.656 28.5604 585.324 29 586.934 29C590.587 29 593.301 26.9014 594.332 24.8766C595.454 22.5856 595.362 18.7298 592.495 15.427L592.478 15.4652V15.4652ZM573.113 20.924C573.149 22.0695 574.104 23.0239 575.248 23.0239H575.323C576.522 22.9857 577.439 21.9752 577.383 20.7711C577.383 19.6256 576.409 18.6724 575.267 18.6724H575.19C575.115 18.6724 575.004 18.6724 574.909 18.7094C573.355 16.0361 572.699 13.1716 572.944 10.0816C573.093 7.75236 573.843 5.72762 575.19 4.0482C576.314 2.61598 578.431 1.90878 579.873 1.87183C583.919 1.7941 585.605 6.93176 585.735 8.97434L587.608 9.54647C587.176 3.28494 583.357 0 579.705 0C576.277 0 573.113 2.53952 571.838 6.2628C570.096 11.2272 571.239 15.9991 573.374 19.818C573.188 20.0664 573.075 20.5048 573.113 20.924V20.924Z" fill="#292929"/>
<path d="M500.5 11.5944C500.114 11.5944 499.731 11.6695 499.374 11.8155C499.018 11.9615 498.693 12.1755 498.42 12.4452C498.147 12.715 497.931 13.0352 497.783 13.3877C497.635 13.7401 497.559 14.1179 497.559 14.4993C497.559 14.8808 497.635 15.2586 497.783 15.611C497.931 15.9635 498.147 16.2837 498.42 16.5535C498.693 16.8232 499.018 17.0372 499.374 17.1832C499.731 17.3292 500.114 17.4043 500.5 17.4043C500.886 17.4043 501.269 17.3292 501.626 17.1832C501.982 17.0372 502.307 16.8232 502.58 16.5535C502.853 16.2837 503.069 15.9635 503.217 15.611C503.365 15.2586 503.441 14.8808 503.441 14.4993C503.441 14.1179 503.365 13.7401 503.217 13.3877C503.069 13.0352 502.853 12.715 502.58 12.4452C502.307 12.1755 501.982 11.9615 501.626 11.8155C501.269 11.6695 500.886 11.5944 500.5 11.5944ZM492.261 20.278L491.612 20.115C486.775 18.9077 484 16.8583 484 14.4939C484 12.1295 486.775 10.0801 491.612 8.87278L492.261 8.71117L492.444 9.34676C492.934 11.0141 493.561 12.6392 494.318 14.206L494.457 14.4953L494.318 14.7845C493.559 16.3508 492.933 17.976 492.444 19.6438L492.261 20.278ZM491.311 10.3572C487.634 11.3771 485.378 12.9375 485.378 14.4939C485.378 16.0489 487.634 17.6094 491.311 18.6307C491.761 17.2181 492.303 15.8363 492.936 14.4939C492.303 13.1519 491.76 11.7699 491.311 10.3572ZM508.739 20.278L508.556 19.6411C508.067 17.9738 507.439 16.3491 506.681 14.7832L506.542 14.4939L506.681 14.2046C507.439 12.6382 508.066 11.013 508.556 9.3454L508.739 8.70981L509.389 8.87142C514.225 10.0788 517 12.1281 517 14.4939C517 16.8597 514.225 18.9077 509.389 20.115L508.739 20.278ZM508.064 14.4939C508.724 15.905 509.27 17.2916 509.689 18.6307C513.367 17.6094 515.622 16.0489 515.622 14.4939C515.622 12.9375 513.366 11.3785 509.689 10.3572C509.24 11.7699 508.697 13.1518 508.064 14.4939ZM491.301 10.3504L491.118 9.71616C489.758 4.98186 490.171 1.58935 492.25 0.405098C494.289 -0.757426 497.563 0.615602 500.994 4.09367L501.461 4.56764L500.994 5.04161C499.775 6.29324 498.661 7.64084 497.663 9.07106L497.478 9.33317L497.155 9.36034C495.4 9.49696 493.659 9.77401 491.95 10.1888L491.301 10.3504ZM493.908 1.34625C493.54 1.34625 493.214 1.42502 492.939 1.5812C491.572 2.35939 491.33 5.0647 492.272 8.71524C493.737 8.39328 495.222 8.166 496.717 8.03484C497.58 6.82327 498.523 5.66911 499.539 4.57986C497.394 2.51693 495.363 1.34625 493.908 1.34625ZM507.093 28.9997V28.9997C505.134 28.9997 502.617 27.5424 500.006 24.8942L499.539 24.4202L500.006 23.9462C501.225 22.6942 502.338 21.3461 503.335 19.9154L503.521 19.6533L503.843 19.6261C505.598 19.4903 507.34 19.2137 509.05 18.7991L509.699 18.6374L509.883 19.273C511.24 24.0046 510.829 27.3985 508.75 28.5814C508.245 28.8634 507.673 29.0077 507.093 28.9997ZM501.461 24.408C503.606 26.4709 505.637 27.6416 507.092 27.6416C507.459 27.6416 507.788 27.5628 508.061 27.4066C509.428 26.6284 509.671 23.9218 508.728 20.2712C507.262 20.5936 505.777 20.8209 504.281 20.9516C503.42 22.164 502.477 23.3187 501.461 24.408ZM509.699 10.3504L509.05 10.1888C507.34 9.77281 505.598 9.49574 503.843 9.36034L503.521 9.33317L503.335 9.07106C502.339 7.64039 501.226 6.29273 500.006 5.04161L499.539 4.56764L500.006 4.09367C503.436 0.61696 506.708 -0.756068 508.75 0.405098C510.829 1.58935 511.241 4.98186 509.883 9.7148L509.699 10.3504ZM504.281 8.03484C505.851 8.17608 507.343 8.4056 508.728 8.71524C509.671 5.0647 509.428 2.35939 508.061 1.5812C506.703 0.805734 504.149 1.99406 501.461 4.57986C502.477 5.66916 503.419 6.82331 504.281 8.03484ZM493.908 28.9997C493.328 29.008 492.755 28.8636 492.25 28.5814C490.171 27.3985 489.758 24.006 491.118 19.273L491.3 18.6374L491.949 18.7991C493.537 19.1943 495.289 19.4727 497.153 19.6261L497.476 19.6533L497.661 19.9154C498.658 21.3459 499.772 22.694 500.991 23.9462L501.458 24.4202L500.991 24.8942C498.381 27.5424 495.865 28.9997 493.908 28.9997ZM492.272 20.2712C491.329 23.9218 491.572 26.6284 492.939 27.4066C494.296 28.1712 496.848 26.9924 499.539 24.408C498.523 23.3179 497.581 22.1633 496.717 20.9516C495.222 20.821 493.737 20.5937 492.272 20.2712ZM500.5 21.1241C499.368 21.1241 498.205 21.0752 497.041 20.9801L496.717 20.953L496.532 20.6909C495.873 19.756 495.254 18.7945 494.675 17.809C494.099 16.8227 493.564 15.8132 493.072 14.7832L492.936 14.4939L493.072 14.2046C493.564 13.1746 494.099 12.1651 494.675 11.1788C495.245 10.2064 495.87 9.23675 496.532 8.29695L496.717 8.03484L497.041 8.00768C499.343 7.81483 501.658 7.81483 503.961 8.00768L504.283 8.03484L504.467 8.29695C505.786 10.1671 506.943 12.1433 507.928 14.2046L508.067 14.4939L507.928 14.7832C506.946 16.8458 505.788 18.8221 504.467 20.6909L504.283 20.953L503.961 20.9801C502.796 21.0752 501.632 21.1241 500.5 21.1241ZM497.479 19.6519C499.514 19.8027 501.486 19.8027 503.522 19.6519C504.659 18.0103 505.669 16.2861 506.542 14.4939C505.67 12.7007 504.66 10.9762 503.521 9.33589C501.51 9.18514 499.49 9.18514 497.479 9.33589C496.339 10.9759 495.329 12.7004 494.458 14.4939C495.332 16.2859 496.342 18.0101 497.479 19.6519Z" fill="#292929"/>
<path d="M720.683 18.8629C719.94 18.8629 719.51 19.5687 719.51 20.5102C719.51 21.4604 719.957 22.1289 720.689 22.1289C721.432 22.1289 721.856 21.4245 721.856 20.4815C721.856 19.6132 721.438 18.8629 720.683 18.8629V18.8629Z" fill="#292929"/>
<path d="M722.375 0H710.875C710.113 0 709.381 0.302901 708.842 0.842068C708.303 1.38123 708 2.1125 708 2.875V25.875C708 26.6375 708.303 27.3688 708.842 27.9079C709.381 28.4471 710.113 28.75 710.875 28.75H728.125C728.887 28.75 729.619 28.4471 730.158 27.9079C730.697 27.3688 731 26.6375 731 25.875V8.625L722.375 0ZM713.782 21.137C713.782 22.5184 713.119 23 712.057 23C711.804 23 711.473 22.9583 711.256 22.885L711.38 22.0009C711.529 22.0513 711.723 22.0872 711.942 22.0872C712.4 22.0872 712.689 21.8787 712.689 21.1241V18.0737H713.783V21.137H713.782ZM715.879 22.9928C715.325 22.9928 714.778 22.8491 714.506 22.6981L714.729 21.7911C715.022 21.942 715.478 22.0944 715.945 22.0944C716.448 22.0944 716.713 21.8845 716.713 21.5697C716.713 21.2664 716.484 21.0939 715.902 20.8854C715.094 20.6051 714.569 20.1581 714.569 19.4537C714.569 18.6257 715.261 17.9917 716.405 17.9917C716.951 17.9917 717.352 18.1068 717.643 18.2376L717.396 19.1216C717.201 19.0282 716.856 18.8916 716.382 18.8916C715.908 18.8916 715.676 19.1073 715.676 19.3588C715.676 19.6679 715.949 19.8059 716.578 20.0431C717.434 20.3593 717.837 20.8049 717.837 21.4892C717.838 22.3028 717.21 22.9928 715.879 22.9928ZM720.631 23C719.192 23 718.351 21.9147 718.351 20.5333C718.351 19.0785 719.28 17.9917 720.712 17.9917C722.2 17.9917 723.013 19.1072 723.013 20.4456C723.012 22.0369 722.049 23 720.631 23V23ZM727.743 22.9209H726.59L725.553 21.0493C725.243 20.4942 724.963 19.9232 724.712 19.3387L724.689 19.3459C724.72 19.9856 724.734 20.6698 724.734 21.4619V22.9224H723.726V18.0737H725.007L726.015 19.8504C726.302 20.3593 726.59 20.9645 726.808 21.5108H726.828C726.756 20.8711 726.735 20.217 726.735 19.4896V18.0737H727.744V22.9209H727.743ZM722.375 10.0625H720.938V2.875L728.125 10.0625H722.375Z" fill="#292929"/>
<path d="M1090.38 0C1087.96 0 1086 1.96307 1086 4.38461C1086 6.80616 1087.96 8.76923 1090.38 8.76923H1100.62C1103.04 8.76923 1105 6.80616 1105 4.38461C1105 1.96307 1103.04 0 1100.62 0H1090.38Z" fill="#292929"/>
<path d="M1100.62 10.2308C1098.19 10.2308 1096.23 12.1938 1096.23 14.6154C1096.23 17.037 1098.19 19 1100.62 19C1103.04 19 1105 17.037 1105 14.6154C1105 12.1938 1103.04 10.2308 1100.62 10.2308Z" fill="#292929"/>
<path d="M1086 14.6154C1086 12.1938 1087.96 10.2308 1090.38 10.2308H1094.77V19H1090.38C1087.96 19 1086 17.037 1086 14.6154Z" fill="#292929"/>
<path d="M1090.38 20.4615C1087.96 20.4615 1086 22.4245 1086 24.8461C1086 27.2677 1087.96 29.2307 1090.38 29.2307C1092.81 29.2307 1094.77 27.2677 1094.77 24.8461V20.4615H1090.38Z" fill="#292929"/>
<path d="M1027.96 0.0161269L1011.31 0.690171C1011.29 0.690662 1011.28 0.69154 1011.27 0.692804C1011.26 0.693577 1011.25 0.694455 1011.24 0.695437C1010.9 0.719429 1010.59 0.871264 1010.36 1.1204C1010.13 1.36953 1010 1.69747 1010 2.03826V20.7693C1010 21.568 1010.23 22.3486 1010.67 23.0126L1014.22 28.3997C1014.35 28.5962 1014.53 28.7549 1014.74 28.8598C1014.95 28.9647 1015.18 29.0121 1015.42 28.9974L1036.75 27.6493C1037.09 27.6278 1037.41 27.4767 1037.64 27.2268C1037.87 26.9768 1038 26.6468 1038 26.3038V5.40848C1038 5.07102 1037.87 4.74595 1037.65 4.49746C1037.59 4.42593 1037.53 4.36595 1037.45 4.32105L1037.45 4.31842C1037.37 4.26116 1037.29 4.21261 1037.2 4.17361L1031.73 1.01929L1031.77 1.04826C1030.66 0.280662 1029.31 -0.0835025 1027.97 0.0161269H1027.96ZM1028.03 1.36158C1028.04 1.36172 1028.05 1.36172 1028.06 1.36158C1029.11 1.28257 1030.15 1.56414 1031.02 2.16201C1031.04 2.17225 1031.05 2.18191 1031.07 2.19097L1034.43 4.13148L1016.47 4.71863L1013.29 1.95927L1028.03 1.36158ZM1035.33 6.80132V25.0374L1016.67 26.2169V7.40954L1035.33 6.80132ZM1033.26 9.45537C1031.9 9.53626 1030.54 9.60305 1029.19 9.7055C1028.74 9.73921 1028.41 10.1286 1028.36 10.556C1028.33 10.7555 1028.39 10.8584 1028.61 10.8745C1029.02 10.9056 1029.43 10.9642 1029.85 11.0141V18.9262C1029.73 18.7442 1029.66 18.6481 1029.6 18.5497C1027.85 15.8818 1026.1 13.2188 1024.36 10.5402C1024.1 10.1357 1023.86 9.94108 1023.34 10.0004C1022.11 10.1366 1020.88 10.1771 1019.65 10.2769C1018.97 10.3321 1018.57 10.9343 1018.75 11.5881C1019.21 11.6285 1019.68 11.67 1020.15 11.7118V23.0784C1019.84 23.1674 1019.53 23.2675 1019.21 23.3444C1018.89 23.4225 1018.74 23.6401 1018.68 23.9394C1018.63 24.1794 1018.69 24.3006 1018.98 24.2791C1019.98 24.2076 1020.98 24.1633 1021.98 24.1027C1022.4 24.0784 1022.81 24.07 1023.22 24.0026C1023.77 23.9096 1024.08 23.5678 1024.14 23.0205C1023.64 22.91 1023.15 22.7884 1022.65 22.6914C1022.42 22.6482 1022.35 22.556 1022.35 22.3228C1022.36 19.6859 1022.36 17.0475 1022.36 14.4106C1022.36 14.3244 1022.37 14.2363 1022.39 14.0921C1022.47 14.1959 1022.5 14.2384 1022.53 14.2843C1023.88 16.4021 1025.22 18.5252 1026.58 20.6376C1027.16 21.5463 1027.76 22.4454 1028.38 23.3338C1028.82 23.9782 1029.48 24.1827 1030.22 24.0263C1030.68 23.9279 1031.13 23.7401 1031.58 23.5945C1031.84 23.5136 1031.91 23.348 1031.91 23.0784C1031.9 19.204 1031.9 15.3308 1031.9 11.4564C1031.9 10.7352 1031.9 10.7358 1032.61 10.5876C1033.26 10.4514 1033.45 10.1294 1033.26 9.45537Z" fill="#292929"/>
<path d="M1249.21 19.6371C1248.24 19.6371 1246.99 19.2035 1246.39 18.8414L1245.81 21.1851C1246.6 21.6187 1247.83 21.9205 1249.21 21.9205C1252.22 21.9205 1253.78 20.478 1253.78 18.5115C1253.75 16.9634 1252.92 15.9471 1250.91 15.2627C1249.62 14.8065 1249.22 14.5481 1249.22 14.0541C1249.22 13.5167 1249.67 13.1924 1250.46 13.1924C1251.37 13.1924 1252.27 13.5394 1252.75 13.7976L1253.33 11.5351C1252.68 11.2108 1251.58 10.9317 1250.35 10.9317C1247.74 10.9317 1246.06 12.4194 1246.06 14.3785C1246.04 15.6304 1246.88 16.8165 1249.06 17.5461C1250.28 17.959 1250.61 18.2154 1250.61 18.7529C1250.61 19.2921 1250.2 19.6371 1249.21 19.6371Z" fill="#292929"/>
<path d="M1238.47 16.5147C1238.77 16.5581 1239.16 16.5732 1239.59 16.5732C1241.53 16.5732 1243.19 16.1018 1244.3 15.0497C1245.17 14.2314 1245.64 13.0227 1245.64 11.603C1245.64 10.1813 1245.03 8.97266 1244.09 8.24294C1243.13 7.46233 1241.68 7.07959 1239.66 7.07959C1237.65 7.07959 1236.23 7.21173 1235.22 7.38131V21.7075H1238.47V16.5147H1238.47ZM1238.48 9.68732C1238.71 9.62125 1239.16 9.55523 1239.83 9.55523C1241.47 9.55523 1242.39 10.3491 1242.4 11.6822C1242.4 13.1717 1241.31 14.0542 1239.57 14.0542C1239.1 14.0542 1238.76 14.0335 1238.48 13.973V9.68732V9.68732Z" fill="#292929"/>
<path d="M1230 0V29H1259V0H1230ZM1257.21 27.2062H1231.79V1.79381H1257.21V27.2062Z" fill="#292929"/>
<path fill-rule="evenodd" clip-rule="evenodd" d="M1164.87 9.78644C1164.64 10.6956 1163.27 15.9399 1163.27 15.9399H1166.63C1166.63 15.9399 1165.14 10.6956 1164.91 9.78644H1164.87Z" fill="#292929"/>
<path fill-rule="evenodd" clip-rule="evenodd" d="M1153 0V29H1182V0H1153ZM1168.3 22.4097L1167.12 18.5145H1162.78L1161.69 22.4097H1158.13L1162.78 7.22062H1167.28L1171.99 22.4097H1168.3ZM1176.76 22.4097H1173.33V11.3945H1176.76V22.4097ZM1175.02 10.0387C1173.94 10.0387 1173.22 9.26885 1173.24 8.3267C1173.22 7.3335 1173.94 6.59027 1175.05 6.59027C1176.16 6.59027 1176.85 7.33343 1176.87 8.3267C1176.87 9.26885 1176.16 10.0387 1175.02 10.0387Z" fill="#292929"/>
<path d="M793.5 26.1C796.577 26.1 799.527 24.8779 801.702 22.7024C803.878 20.527 805.1 17.5765 805.1 14.5C805.1 11.4235 803.878 8.47298 801.702 6.29756C799.527 4.12214 796.577 2.9 793.5 2.9C790.423 2.9 787.473 4.12214 785.298 6.29756C783.122 8.47298 781.9 11.4235 781.9 14.5C781.9 17.5765 783.122 20.527 785.298 22.7024C787.473 24.8779 790.423 26.1 793.5 26.1V26.1ZM793.5 29C785.492 29 779 22.5084 779 14.5C779 6.49165 785.492 0 793.5 0C801.508 0 808 6.49165 808 14.5C808 22.5084 801.508 29 793.5 29Z" fill="#292929"/>
<path d="M798.233 9.90786L797.066 9.82086L796.207 8.96681L797.066 9.82231C797.066 9.82231 798.182 9.90351 798.233 9.90931C798.286 9.91221 798.349 9.95281 798.36 10.0253L799.942 20.7336L795.462 21.7022L787.193 20.155C787.193 20.155 788.254 11.948 788.295 11.658C788.347 11.2752 788.36 11.2622 788.766 11.136L790.074 10.73C790.355 9.54101 791.248 7.20361 793.119 7.20361C793.362 7.20361 793.645 7.33411 793.873 7.63716C793.895 7.63556 793.918 7.63459 793.941 7.63426C794.744 7.63426 795.199 8.31866 795.459 9.06251L795.893 8.92911C795.956 8.91109 796.023 8.90616 796.088 8.91461L798.233 9.90786ZM793.941 12.3845C793.941 12.3845 793.568 12.167 792.811 12.167C790.849 12.167 789.878 13.4778 789.878 14.8321C789.878 16.4416 791.483 16.4851 791.483 17.4638C791.484 17.5392 791.469 17.614 791.44 17.6835C791.411 17.7531 791.368 17.816 791.313 17.8683C791.259 17.9207 791.195 17.9615 791.124 17.9882C791.054 18.0148 790.978 18.0269 790.903 18.0235C790.274 18.0235 789.528 17.3841 789.528 17.3841L789.149 18.6398C789.149 18.6398 789.874 19.5228 791.295 19.5228C792.476 19.5228 793.354 18.6325 793.354 17.2492C793.354 15.4904 791.396 15.2033 791.396 14.4522C791.396 14.3144 791.441 13.7692 792.311 13.7692C792.906 13.7692 793.388 14.0273 793.388 14.0273L793.941 12.3845V12.3845ZM795.002 9.20171C794.824 8.66086 794.548 8.18961 794.135 8.13886C794.238 8.43321 794.302 8.80586 794.302 9.26841V9.41921L795.002 9.20171ZM793.622 8.23021C793.167 8.42596 792.645 8.94361 792.366 10.0181L793.812 9.57146V9.49026C793.812 8.93201 793.736 8.51876 793.623 8.22876L793.622 8.23021ZM793.066 7.70386C791.724 7.70386 790.968 9.46706 790.651 10.5488L791.793 10.195C792.065 8.77686 792.707 8.06636 793.306 7.78506C793.236 7.7342 793.153 7.70586 793.066 7.70386V7.70386Z" fill="#292929"/>
<path d="M870.464 0C869.956 0 869.521 0.18125 869.159 0.54375L866.512 3.19L869.847 6.525C870.258 6.38 870.669 6.35583 871.08 6.4525C871.491 6.54917 871.847 6.74854 872.149 7.05062C872.451 7.35271 872.645 7.70917 872.729 8.12C872.814 8.53083 872.796 8.94167 872.675 9.3525L875.865 12.5425C876.276 12.4217 876.687 12.4035 877.097 12.4881C877.508 12.5727 877.871 12.7721 878.185 13.0862C878.62 13.5212 878.837 14.0469 878.837 14.6631C878.837 15.2794 878.62 15.799 878.185 16.2219C877.75 16.6448 877.224 16.8562 876.608 16.8562C875.992 16.8562 875.466 16.6508 875.031 16.24C874.717 15.9017 874.518 15.515 874.433 15.08C874.349 14.645 874.391 14.2221 874.56 13.8112L871.551 10.8025V18.705C871.769 18.8017 871.962 18.9346 872.131 19.1037C872.566 19.5387 872.784 20.0644 872.784 20.6806C872.784 21.2969 872.566 21.8225 872.131 22.2575C871.696 22.6925 871.171 22.91 870.554 22.91C869.938 22.91 869.419 22.6925 868.996 22.2575C868.573 21.8225 868.361 21.2969 868.361 20.6806C868.361 20.0644 868.579 19.5387 869.014 19.1037C869.207 18.9104 869.449 18.7533 869.739 18.6325V10.6575C869.449 10.5608 869.207 10.4037 869.014 10.1862C868.675 9.87208 868.464 9.49146 868.379 9.04437C868.295 8.59729 868.337 8.16833 868.506 7.7575L865.244 4.45875L856.544 13.1587C856.181 13.5212 856 13.9623 856 14.4819C856 15.0015 856.181 15.4425 856.544 15.805L869.195 28.4562C869.557 28.8187 869.999 29 870.518 29C871.038 29 871.479 28.8187 871.841 28.4562L884.456 15.8412C884.819 15.4787 885 15.0377 885 14.5181C885 13.9985 884.819 13.5575 884.456 13.195L871.805 0.54375C871.442 0.18125 870.995 0 870.464 0Z" fill="#292929"/>
<path d="M257.94 0L257.727 1.08238C257.398 3.13364 257.517 3.7205 258.418 4.48177L259.288 5.1849L258.387 9.11025C257.849 11.4522 257.189 13.4149 256.769 14.0598C256.41 14.6163 255.99 15.4357 255.9 15.8758C255.75 16.4018 255.239 16.9305 254.46 17.3983C253.772 17.7804 252.42 18.8046 251.463 19.6268C250.698 20.2994 250.171 20.7119 249.884 20.8891L248.95 21.6116C248.649 22.0822 248.479 22.4614 248.414 22.7493C248.349 23.0455 248.386 23.2421 248.482 23.386C248.576 23.5244 248.737 23.6213 248.958 23.6822C249.22 23.7421 249.489 23.7636 249.757 23.7459C250.364 23.7054 250.964 23.6015 251.548 23.4358C251.746 23.3833 251.902 23.3334 252.038 23.2891C252.247 23.0372 252.732 22.5611 253.59 21.7334C255.868 19.5382 256.738 18.3368 255.84 18.6607C255.509 18.7769 255.659 18.4835 256.228 17.8966C257.43 16.7533 258.118 15.026 259.557 9.60853C260.696 5.33161 260.696 5.27071 261.535 5.27071C261.929 5.27071 263.042 5.33715 263.042 5.33715V0H260.487H257.94ZM268.817 8.76145C268.635 8.76145 268.335 9.0272 268.157 9.32064C267.828 9.8466 268.216 10.1677 273.163 13.1851C276.101 15.0038 278.47 16.554 278.41 16.6731C278.351 16.7589 275.951 18.2842 273.075 20.042C267.856 23.2033 267.828 23.2338 268.307 23.8788C268.907 24.64 268.307 24.903 275.081 20.7728L280 17.6973V15.3831L274.512 12.0723C271.545 10.2563 268.967 8.7919 268.817 8.76145ZM223.243 9.08534C223.092 9.08534 220.514 10.5802 217.548 12.3657L212 15.6765V17.9907L217.516 21.3597C220.576 23.2033 223.155 24.7286 223.274 24.7286C223.393 24.7286 223.634 24.4629 223.874 24.1417C224.234 23.5853 223.931 23.35 218.865 20.2164C214.04 17.2572 213.53 16.8475 214.012 16.5263C214.312 16.3215 216.59 14.9429 219.049 13.4508C224.656 10.0819 224.356 10.3144 223.906 9.6113C223.727 9.32064 223.424 9.05765 223.245 9.08534H223.243ZM247.847 9.14901C247.02 9.14347 245.241 10.3753 239.914 14.6246C239.684 15.1588 239.665 15.527 239.769 15.7651C239.837 15.9284 239.962 16.0419 240.135 16.125C240.305 16.208 240.526 16.2578 240.77 16.2772C241.254 16.3187 241.826 16.244 242.288 16.1554L242.6 16.0862C242.707 15.9464 242.847 15.8343 243.008 15.7595C243.337 15.5824 244.717 14.3533 246.096 13.0356C248.525 10.6328 249.094 9.54763 248.105 9.19607C248.024 9.16453 247.937 9.14855 247.85 9.14901H247.847ZM254.069 10.8183C253.341 10.8376 252.029 11.6626 249.782 13.4149C248.655 14.309 247.941 14.7907 247.558 14.8903L246.074 16.0364C245.515 17.0329 245.433 17.6502 245.581 17.9907C245.618 18.0747 245.671 18.1508 245.738 18.2144C245.805 18.2781 245.885 18.3281 245.972 18.3617C246.188 18.4452 246.419 18.4875 246.652 18.4863C247.208 18.4805 247.761 18.4013 248.295 18.251C248.574 18.1779 248.849 18.093 249.119 17.9963L249.202 17.9631L249.352 17.8855C249.635 17.5284 250.287 16.8558 251.103 16.0807C253.681 13.6502 254.999 11.9228 254.729 11.2778C254.608 10.965 254.398 10.8072 254.069 10.8183V10.8183ZM247.201 13.8079C246.992 13.8301 246.521 14.1844 245.674 14.9097C244.45 15.9672 243.116 16.5762 242.654 16.3049C242.547 16.3286 242.439 16.3507 242.331 16.3713C241.86 16.4627 241.274 16.5374 240.75 16.4959C240.503 16.4813 240.261 16.4222 240.036 16.3215C239.824 16.2267 239.654 16.0593 239.56 15.8509C239.455 15.6018 239.455 15.2917 239.574 14.8959L237.732 16.3741L233.564 19.743V25.2047L247.221 14.6938C247.219 14.5787 247.234 14.4639 247.266 14.3533C247.371 13.9823 247.366 13.7941 247.201 13.8107V13.8079ZM253.078 15.5768C252.871 15.5768 252.525 15.862 251.973 16.435C251.222 17.2184 250.04 17.9769 249.414 18.1319L249.318 18.1817C249.215 18.2232 249.111 18.262 249.006 18.298C248.836 18.3534 248.615 18.4198 248.36 18.4863C247.85 18.6219 247.215 18.7465 246.649 18.7326C246.382 18.7323 246.117 18.6815 245.87 18.5831C245.636 18.4892 245.45 18.3106 245.348 18.0849C245.184 17.7001 245.249 17.1603 245.609 16.3935L233.562 25.6643V29H238.854L250.08 20.3853C250.372 20.0697 250.811 19.6378 251.403 19.098C252.99 17.6613 253.35 17.1658 253.35 16.4322C253.35 15.862 253.284 15.5741 253.078 15.5741V15.5768ZM255.749 20.9749L254.789 21.9106C254.251 22.4088 253.29 23.0234 252.633 23.2864L252.502 23.3417L252.494 23.3556L252.466 23.3833C252.44 23.4026 252.429 23.4054 252.409 23.4137C252.147 23.5107 251.88 23.5966 251.61 23.6711C251.01 23.8419 250.392 23.9486 249.768 23.9895C249.473 24.008 249.177 23.9828 248.89 23.9148C248.641 23.8611 248.421 23.7191 248.272 23.5161C248.136 23.3113 248.097 23.0372 248.173 22.6995C248.234 22.4591 248.324 22.2267 248.442 22.0074L239.384 29H251.431L252.871 27.3889C254.848 25.1355 255.749 23.5244 255.749 22.1459V20.9749Z" fill="#292929"/>
<path d="M650.363 3.50378L643 9.50211H647.809V29L650.363 26.9426V3.50378Z" fill="#292929"/>
<path d="M652.485 25.2009L659.978 19.0521H655.035V0L652.485 1.77491V25.2009Z" fill="#292929"/>
<path d="M953.464 10.2794C953.602 10.349 953.726 10.4436 953.83 10.5582L956.668 9.2912L954.02 6.65892L953.426 10.2406L953.464 10.2794ZM947.574 7.88716C947.712 8.09583 947.798 8.33435 947.826 8.58312L952.052 10.38C952.18 10.2816 952.326 10.2088 952.481 10.1654L953.175 5.86111L950.601 3.15244L947.574 7.8229V7.88716V7.88716ZM961.994 14.5449L957.465 10.0005L954.386 11.2663L961.955 14.4939C961.955 14.4939 962.019 14.5449 961.994 14.5449V14.5449ZM961.236 15.2796L953.97 12.1648C953.869 12.2994 953.742 12.4124 953.597 12.4971C953.451 12.5819 953.291 12.6367 953.124 12.6582L952.342 17.456C952.575 17.6918 952.707 18.0101 952.708 18.3423L957.099 19.2662L961.123 15.2529V15.1778L961.236 15.2796ZM951.61 11.1657L947.661 9.48035C947.525 9.68956 947.337 9.86004 947.116 9.97535C946.895 10.0907 946.648 10.1469 946.399 10.1387H946.159L942.891 15.2032L951.622 11.4058V11.4179C951.616 11.3505 951.616 11.2827 951.622 11.2154C951.624 11.2067 951.623 11.1978 951.621 11.1893C951.619 11.1807 951.615 11.1727 951.61 11.1657V11.1657ZM956.404 20.0265L952.543 19.2287C952.398 19.4148 952.206 19.5588 951.987 19.6457L951.067 25.3686L956.429 20.0386C956.429 20.0386 956.417 20.0628 956.404 20.0628V20.0265ZM951.003 19.6336C950.821 19.5585 950.658 19.4415 950.529 19.292C950.4 19.1425 950.307 18.9647 950.259 18.7728L943.069 17.2911L942.967 17.456L949.49 26.9255L949.881 26.5326L950.991 19.6579C950.991 19.6579 951.029 19.6845 951.003 19.6712V19.6336ZM943.22 16.4181L950.323 17.8864C950.425 17.7076 950.569 17.5564 950.743 17.4461C950.916 17.3358 951.114 17.2697 951.319 17.2535L952.088 12.5322L951.925 12.3927L943.094 16.1902C943.14 16.2636 943.182 16.3397 943.22 16.4181V16.4181ZM940.242 17.6076L940.091 17.456L937.025 18.7218L938.514 20.2035L940.205 17.57L940.242 17.6076ZM942.26 18.0889C942.047 18.1874 941.815 18.2391 941.58 18.2405C941.395 18.2412 941.211 18.2113 941.036 18.152L939.17 20.874L947.345 29L948.783 27.5693L942.26 18.0889ZM941.112 14.8868C941.238 14.875 941.365 14.875 941.492 14.8868C941.63 14.8694 941.769 14.8694 941.907 14.8868L945.212 9.73376C944.954 9.46556 944.81 9.10752 944.809 8.73468C944.797 8.62548 944.797 8.5153 944.809 8.4061L940.797 6.54495L937.568 9.69738L941.112 14.8868ZM941.478 5.91203L945.39 7.58283C945.673 7.34892 946.032 7.22728 946.399 7.24091C946.562 7.24233 946.724 7.26808 946.879 7.31729L949.931 2.53165L947.408 0L941.478 5.83565C941.478 5.83565 941.466 5.8987 941.478 5.91203V5.91203ZM940.016 15.8107C940.095 15.6635 940.192 15.5273 940.306 15.4057L936.961 10.3933L933 14.2539L940.014 15.8107H940.016ZM939.7 16.6594L933.644 15.3912L936.306 18.1011L939.662 16.6703L939.7 16.6594Z" fill="#292929"/>
</svg>
