<svg width="1259" height="30" fill="none" xmlns="http://www.w3.org/2000/svg"><path d="M354.17 22.352 342.033 29v-5.178l7.562-4.028 4.575 2.558Zm.83-.729V7.72l-4.441 2.483v8.936L355 21.623Zm-26.17.729L340.967 29v-5.178l-7.562-4.028-4.575 2.558Zm-.83-.729V7.72l4.441 2.483v8.936L328 21.623Zm.52-14.803L340.967 0v5.007l-7.974 4.247-.061.034-4.412-2.468Zm25.96 0L342.033 0v5.007l7.974 4.247.061.034 4.412-2.468Zm-13.513 15.824-7.46-3.972V10.8l7.46 4.171v7.672Zm1.066 0 7.46-3.972V10.8l-7.46 4.171v7.672ZM334.012 9.89l7.489-3.99 7.49 3.99-7.49 4.188-7.489-4.188ZM66.391.019c-1.837-.099-3.903.187-5.924.9-3.21 1.13-6.684 2.91-9.181 5.227-2.967 2.758-3.443 5.159-3.248 6.163.694 3.562 5.643 5.886 7.623 7.604-.098.055-.189.101-.275.15-.993.49-4.677 2.413-5.621 4.483-1.066 2.346.176 4.026.993 4.255 2.546.702 5.067-.525 6.467-2.598 1.401-2.075 1.233-4.782.586-6.016-.006-.019-.019-.03-.025-.05.256-.151.517-.304.78-.456.505-.297.999-.568 1.432-.804-.245.654-.421 1.442-.513 2.578-.11 1.33.444 3.051 1.163 3.73.317.297.7.304.937.304.84 0 1.219-.69 1.637-1.513.518-1.005.975-2.17.975-2.17s-.57 3.154.996 3.154c.572 0 1.145-.73 1.401-1.105v.005s.01-.023.041-.072c.061-.091.091-.145.091-.145v-.018c.232-.393.74-1.294 1.501-2.781.987-1.923 1.93-4.325 1.93-4.325.09.528.217 1.048.378 1.56.17.573.532 1.203.818 1.814-.232.314-.373.495-.373.495 0 .005.003.01.007.013-.183.241-.391.5-.604.755-.78.92-1.707 1.974-1.828 2.276-.147.356-.11.622.17.827.206.157.575.181.957.152.7-.048 1.194-.219 1.432-.327.438-.156.852-.37 1.229-.64.762-.556 1.226-1.355 1.183-2.407-.024-.58-.215-1.162-.447-1.706.068-.096.142-.199.209-.302 1.206-1.747 2.138-3.665 2.138-3.665.09.528.217 1.049.378 1.56.147.489.433 1.027.696 1.554-1.133.913-1.835 1.972-2.08 2.667-.451 1.289-.096 1.867.569 2 .299.061.724-.076 1.04-.208a4.84 4.84 0 0 0 1.316-.673c.762-.557 1.5-1.336 1.45-2.394-.018-.478-.15-.956-.328-1.416.957-.398 2.2-.616 3.784-.435 3.393.393 4.058 2.498 3.93 3.374-.127.878-.84 1.368-1.079 1.513-.237.145-.31.2-.292.31.03.156.14.15.34.113.281-.049 1.779-.713 1.847-2.34.097-2.056-1.893-4.317-5.419-4.3h-.005c-1.224 0-2.431.28-3.53.817-.36-.72-.732-1.349-.792-1.82-.073-.55-.15-.877-.066-1.529.086-.653.469-1.58.462-1.647-.006-.066-.085-.398-.87-.404-.786-.007-1.464.15-1.542.355-.139.376-.247.762-.322 1.155-.14.707-1.572 3.236-2.382 4.555-.268-.515-.493-.967-.54-1.33-.074-.55-.154-.877-.07-1.529.086-.653.472-1.58.465-1.647-.006-.066-.085-.398-.87-.405-.786-.006-1.465.152-1.544.356-.08.206-.166.689-.323 1.155-.159.466-2.065 4.677-2.565 5.771a29.244 29.244 0 0 1-.634 1.307c-.025.05-.042.08-.054.103.019-.03.03-.06.03-.049-.133.26-.213.405-.213.405v.005c-.103.194-.22.371-.274.371-.036 0-.116-.508.018-1.203.286-1.464.964-3.739.957-3.818-.006-.042.125-.436-.447-.647-.555-.2-.753.134-.802.134-.05 0-.086.121-.086.121s.613-2.565-1.184-2.565c-1.121 0-2.682 1.222-3.448 2.328-.48.26-1.523.824-2.62 1.423l-1.26.688c-.03-.03-.055-.06-.086-.09-2.181-2.31-6.208-3.945-6.038-7.047.061-1.131.459-4.1 7.744-7.705 5.973-2.951 10.747-2.142 11.569-.34 1.182 2.57-2.554 7.356-8.755 8.045-2.364.26-3.453-.754-3.763-1.093-.323-.357-.373-.376-.495-.31-.202.109-.073.424 0 .611.183.478.998 1.226 2.295 1.65 1.14.37 3.758.68 7.11-.608 3.765-1.44 6.64-5.352 5.781-8.708C71.882 1.418 69.454.183 66.391.02Zm-1.998 16.2c.095.008.166.043.206.111.213.358-.741 2.99-.986 3.583-.39.95-1.213 3.371-1.714 3.243-.426-.108-.69-1.954-.086-3.768.304-.914.95-2.002 1.336-2.426.46-.513.958-.764 1.244-.742Zm12.663 2.985c.071.212.109.433.114.655-.007 1.362-.987 1.87-1.577 2.08-.122-.084-.106-.37.302-1.252.159-.345.526-.925 1.16-1.483Zm-20.468 1.5c.505 1.84.018 3.461-1.163 4.738-1.121 1.216-2.694 1.676-3.37 1.29-.725-.419-.439-2.21.945-3.506.84-.787 1.926-1.512 2.645-1.96.166-.096.401-.241.694-.417.05-.03.073-.041.073-.041.055-.036.114-.066.175-.103Zm15.31.212c0 .03.008.062.008.098-.008 1.082-1.058 1.813-1.533 2.104h.005v.002c-.165.084-.319.138-.391.095-.055-.03.068-.144.068-.144s.847-.903 1.181-1.315c.195-.241.42-.526.663-.84ZM135 0v29h29V0h-29Zm15.136 24.808c-.428.868-1.244 1.439-2.189 1.714-1.453.334-2.842.144-3.876-.477-.692-.424-1.233-1.078-1.599-1.83.736-.45 1.47-.902 2.206-1.351.019.008.077.113.155.248.28.472.523.805 1 1.039.469.16 1.497.262 1.894-.563.243-.418.165-1.794.165-3.285 0-2.343.011-4.648.011-7.02h2.713c0 2.491.014 4.988 0 7.476.005 1.524.138 2.91-.48 4.048Zm11.253-.766c-.943 3.225-6.2 3.33-8.3 1.199-.444-.502-.722-.764-.987-1.343 1.117-.642 1.117-.642 2.203-1.27.59.907 1.136 1.405 2.117 1.61 1.332.161 2.671-.296 2.371-1.71-.308-1.155-2.726-1.436-4.372-2.671-1.67-1.122-2.061-3.848-.689-5.406.458-.577 1.238-1.006 2.056-1.213l.855-.11c1.64-.034 2.665.399 3.418 1.24.209.213.38.441.7.938-.873.557-.871.552-2.123 1.362-.267-.576-.71-.937-1.179-1.094-.728-.22-1.646.02-1.836.789-.066.237-.052.457.053.848.295.673 1.284.965 2.172 1.373 2.556 1.037 3.418 2.147 3.631 3.47.203 1.139-.05 1.877-.088 1.988h-.002ZM436.462 14.5 428.096 0h-9.499l-3.056 5.298h9.496l5.308 9.202-5.308 9.202h-9.496L418.597 29h9.499l8.366-14.5Z" fill="#292929"/><path d="m414.426 23.702-5.31-9.202 5.31-9.202L417.482 0h-6.117L403 14.5l8.365 14.5h6.117l-3.056-5.298ZM585.792 20.238c1.087-.095 1.929-1.07 1.874-2.235-.057-1.164-.993-2.1-2.135-2.1h-.076c-1.179.04-2.098 1.05-2.06 2.255.037.61.282 1.107.617 1.469-1.31 2.597-3.276 4.506-6.255 6.11-2.004 1.068-4.12 1.47-6.181 1.184-1.722-.248-3.07-1.033-3.895-2.292-1.235-1.91-1.348-3.97-.319-6.032.752-1.49 1.874-2.578 2.624-3.113a12.998 12.998 0 0 1-.525-1.964c-5.545 4.048-4.981 9.583-3.296 12.199 1.255 1.909 3.821 3.13 6.63 3.13.749 0 1.537-.057 2.304-.248 4.871-.954 8.56-3.932 10.676-8.323l.017-.04Zm6.686-4.773c-2.901-3.475-7.173-5.383-12.043-5.383h-.638c-.316-.706-1.046-1.146-1.871-1.146h-.057c-1.178 0-2.097 1.032-2.059 2.234.038 1.144.993 2.1 2.136 2.1h.092a2.116 2.116 0 0 0 1.873-1.337h.694c2.886 0 5.619.859 8.11 2.538 1.909 1.28 3.278 2.96 4.046 4.965.672 1.64.636 3.245-.057 4.583-1.067 2.099-2.866 3.207-5.244 3.207-1.499 0-2.959-.477-3.709-.82-.449.38-1.199 1.01-1.743 1.392 1.648.762 3.316 1.202 4.926 1.202 3.653 0 6.367-2.099 7.398-4.123 1.122-2.291 1.03-6.147-1.837-9.45l-.017.038Zm-19.365 5.459c.036 1.146.991 2.1 2.135 2.1h.075a2.135 2.135 0 0 0 2.06-2.253c0-1.145-.974-2.099-2.116-2.099h-.077c-.075 0-.186 0-.281.037-1.554-2.673-2.21-5.537-1.965-8.627.149-2.33.899-4.354 2.246-6.034 1.124-1.432 3.241-2.14 4.683-2.176 4.046-.078 5.732 5.06 5.862 7.102l1.873.572C587.176 3.285 583.357 0 579.705 0c-3.428 0-6.592 2.54-7.867 6.263-1.742 4.964-.599 9.736 1.536 13.555-.186.248-.299.687-.261 1.106ZM500.5 11.594a2.952 2.952 0 0 0-2.08.85 2.906 2.906 0 0 0-.861 2.055 2.906 2.906 0 0 0 1.815 2.684 2.977 2.977 0 0 0 3.206-.63 2.906 2.906 0 0 0 .861-2.054 2.906 2.906 0 0 0-1.815-2.684 2.977 2.977 0 0 0-1.126-.22Zm-8.239 8.684-.649-.163c-4.837-1.207-7.612-3.257-7.612-5.621 0-2.364 2.775-4.414 7.612-5.621l.649-.162.183.636a31.745 31.745 0 0 0 1.874 4.859l.139.29-.139.288a31.4 31.4 0 0 0-1.874 4.86l-.183.634Zm-.95-9.92c-3.677 1.02-5.933 2.58-5.933 4.136 0 1.555 2.256 3.115 5.933 4.137.45-1.413.992-2.795 1.625-4.137a33.441 33.441 0 0 1-1.625-4.137Zm17.428 9.92-.183-.637a31.495 31.495 0 0 0-1.875-4.858l-.139-.29.139-.288a31.62 31.62 0 0 0 1.875-4.86l.183-.635.65.161c4.836 1.208 7.611 3.257 7.611 5.623s-2.775 4.414-7.611 5.621l-.65.163Zm-.675-5.784a33.272 33.272 0 0 1 1.625 4.137c3.678-1.022 5.933-2.582 5.933-4.137 0-1.556-2.256-3.115-5.933-4.137a33.447 33.447 0 0 1-1.625 4.137Zm-16.763-4.144-.183-.634c-1.36-4.734-.947-8.127 1.132-9.31 2.039-1.163 5.313.21 8.744 3.688l.467.474-.467.474a32.12 32.12 0 0 0-3.331 4.03l-.185.261-.323.027a32.894 32.894 0 0 0-5.205.829l-.649.161Zm2.607-9.004c-.368 0-.694.079-.969.235-1.367.778-1.609 3.484-.667 7.134 1.465-.322 2.95-.549 4.445-.68a33.903 33.903 0 0 1 2.822-3.455c-2.145-2.063-4.176-3.234-5.631-3.234ZM507.093 29c-1.959 0-4.476-1.458-7.087-4.106l-.467-.474.467-.474a32.022 32.022 0 0 0 3.329-4.03l.186-.263.322-.027a32.862 32.862 0 0 0 5.207-.827l.649-.162.184.636c1.357 4.732.946 8.125-1.133 9.308a3.306 3.306 0 0 1-1.657.419Zm-5.632-4.592c2.145 2.063 4.176 3.234 5.631 3.234.367 0 .696-.08.969-.235 1.367-.779 1.61-3.485.667-7.136-1.466.323-2.951.55-4.447.68a33.551 33.551 0 0 1-2.82 3.457Zm8.238-14.058-.649-.161a32.661 32.661 0 0 0-5.207-.829l-.322-.027-.186-.262a31.778 31.778 0 0 0-3.329-4.03l-.467-.473.467-.474c3.43-3.477 6.702-4.85 8.744-3.689 2.079 1.184 2.491 4.577 1.133 9.31l-.184.635Zm-5.418-2.315c1.57.141 3.062.37 4.447.68.943-3.65.7-6.356-.667-7.134-1.358-.775-3.912.413-6.6 2.999a33.76 33.76 0 0 1 2.82 3.455ZM493.908 29a3.305 3.305 0 0 1-1.658-.419c-2.079-1.183-2.492-4.575-1.132-9.308l.182-.636.649.162c1.588.395 3.34.674 5.204.827l.323.027.185.262a32.058 32.058 0 0 0 3.33 4.031l.467.474-.467.474c-2.61 2.648-5.126 4.106-7.083 4.106Zm-1.636-8.729c-.943 3.65-.7 6.357.667 7.136 1.357.764 3.909-.415 6.6-2.999a34.133 34.133 0 0 1-2.822-3.456 34.74 34.74 0 0 1-4.445-.68Zm8.228.853c-1.132 0-2.295-.049-3.459-.144l-.324-.027-.185-.262a41.41 41.41 0 0 1-1.857-2.882 41.295 41.295 0 0 1-1.603-3.026l-.136-.29.136-.288a41.295 41.295 0 0 1 1.603-3.026 41.26 41.26 0 0 1 1.857-2.882l.185-.262.324-.027a41.457 41.457 0 0 1 6.92 0l.322.027.184.262a40.68 40.68 0 0 1 3.461 5.908l.139.289-.139.29a40.093 40.093 0 0 1-3.461 5.907l-.184.262-.322.027a42.726 42.726 0 0 1-3.461.144Zm-3.021-1.472c2.035.15 4.007.15 6.043 0a39.24 39.24 0 0 0 3.02-5.158 38.77 38.77 0 0 0-3.021-5.158 40.417 40.417 0 0 0-6.042 0 38.517 38.517 0 0 0-3.021 5.158 39.385 39.385 0 0 0 3.021 5.158ZM720.683 18.863c-.743 0-1.173.706-1.173 1.647 0 .95.447 1.619 1.179 1.619.743 0 1.167-.705 1.167-1.648 0-.868-.418-1.618-1.173-1.618Z" fill="#292929"/><path d="M722.375 0h-11.5A2.876 2.876 0 0 0 708 2.875v23a2.875 2.875 0 0 0 2.875 2.875h17.25A2.876 2.876 0 0 0 731 25.875V8.625L722.375 0Zm-8.593 21.137c0 1.381-.663 1.863-1.725 1.863-.253 0-.584-.042-.801-.115l.124-.884c.149.05.343.086.562.086.458 0 .747-.208.747-.963v-3.05h1.094v3.063h-.001Zm2.097 1.856c-.554 0-1.101-.144-1.373-.295l.223-.907c.293.151.749.303 1.216.303.503 0 .768-.21.768-.524 0-.304-.229-.476-.811-.685-.808-.28-1.333-.727-1.333-1.431 0-.828.692-1.462 1.836-1.462.546 0 .947.115 1.238.246l-.247.884a2.311 2.311 0 0 0-1.014-.23c-.474 0-.706.215-.706.467 0 .309.273.447.902.684.856.316 1.259.762 1.259 1.446.001.814-.627 1.504-1.958 1.504Zm4.752.007c-1.439 0-2.28-1.085-2.28-2.467 0-1.455.929-2.541 2.361-2.541 1.488 0 2.301 1.115 2.301 2.454-.001 1.59-.964 2.554-2.382 2.554Zm7.112-.08h-1.153l-1.037-1.87c-.31-.556-.59-1.127-.841-1.711l-.023.007c.031.64.045 1.324.045 2.116v1.46h-1.008v-4.848h1.281l1.008 1.776c.287.51.575 1.114.793 1.66h.02a17.963 17.963 0 0 1-.093-2.02v-1.416h1.009v4.847h-.001Zm-5.368-12.858h-1.437V2.875l7.187 7.188h-5.75ZM1090.38 0a4.382 4.382 0 0 0-4.38 4.385 4.382 4.382 0 0 0 4.38 4.384h10.24c2.42 0 4.38-1.963 4.38-4.384A4.382 4.382 0 0 0 1100.62 0h-10.24ZM1100.62 10.23a4.384 4.384 0 1 0 0 8.77c2.42 0 4.38-1.963 4.38-4.385a4.382 4.382 0 0 0-4.38-4.384ZM1086 14.615a4.382 4.382 0 0 1 4.38-4.384h4.39V19h-4.39a4.382 4.382 0 0 1-4.38-4.385ZM1090.38 20.462a4.382 4.382 0 0 0-4.38 4.384 4.382 4.382 0 0 0 4.38 4.385c2.43 0 4.39-1.963 4.39-4.385v-4.384h-4.39ZM1027.96.016l-16.65.674c-.02 0-.03.002-.04.003l-.03.002c-.34.024-.65.176-.88.425-.23.25-.36.577-.36.918V20.77c0 .799.23 1.58.67 2.244l3.55 5.387a1.344 1.344 0 0 0 1.2.597l21.33-1.348c.34-.021.66-.172.89-.422.23-.25.36-.58.36-.923V5.408c0-.337-.13-.662-.35-.91a.72.72 0 0 0-.2-.177v-.003a1.34 1.34 0 0 0-.25-.144l-5.47-3.155.04.03a5.929 5.929 0 0 0-3.8-1.033h-.01Zm.07 1.346h.03a4.606 4.606 0 0 1 2.96.8c.02.01.03.02.05.029l3.36 1.94-17.96.588-3.18-2.76 14.74-.597Zm7.3 5.44v18.235l-18.66 1.18V7.41l18.66-.609Zm-2.07 2.653c-1.36.081-2.72.148-4.07.25-.45.034-.78.424-.83.851-.03.2.03.302.25.319.41.03.82.09 1.24.14v7.911c-.12-.182-.19-.278-.25-.376-1.75-2.668-3.5-5.331-5.24-8.01-.26-.404-.5-.599-1.02-.54-1.23.137-2.46.177-3.69.277-.68.055-1.08.657-.9 1.311l1.4.124v11.366c-.31.09-.62.19-.94.266-.32.078-.47.296-.53.595-.05.24.01.362.3.34 1-.071 2-.116 3-.176.42-.025.83-.033 1.24-.1.55-.093.86-.435.92-.983-.5-.11-.99-.232-1.49-.329-.23-.043-.3-.135-.3-.368.01-2.637.01-5.276.01-7.912 0-.087.01-.175.03-.319.08.104.11.146.14.192 1.35 2.118 2.69 4.241 4.05 6.354.58.908 1.18 1.807 1.8 2.696.44.644 1.1.849 1.84.692.46-.098.91-.286 1.36-.431.26-.081.33-.247.33-.517-.01-3.874-.01-7.747-.01-11.622 0-.72 0-.72.71-.868.65-.137.84-.459.65-1.133ZM1249.21 19.637c-.97 0-2.22-.434-2.82-.796l-.58 2.344c.79.434 2.02.736 3.4.736 3.01 0 4.57-1.443 4.57-3.41-.03-1.548-.86-2.564-2.87-3.248-1.29-.457-1.69-.715-1.69-1.209 0-.537.45-.862 1.24-.862.91 0 1.81.347 2.29.606l.58-2.263c-.65-.324-1.75-.603-2.98-.603-2.61 0-4.29 1.487-4.29 3.447-.02 1.251.82 2.438 3 3.167 1.22.413 1.55.67 1.55 1.207 0 .54-.41.884-1.4.884ZM1238.47 16.515c.3.043.69.058 1.12.058 1.94 0 3.6-.471 4.71-1.523.87-.819 1.34-2.027 1.34-3.447 0-1.422-.61-2.63-1.55-3.36-.96-.78-2.41-1.163-4.43-1.163-2.01 0-3.43.132-4.44.301v14.326h3.25v-5.192Zm.01-6.828c.23-.066.68-.132 1.35-.132 1.64 0 2.56.794 2.57 2.127 0 1.49-1.09 2.372-2.83 2.372-.47 0-.81-.02-1.09-.081V9.687Z" fill="#292929"/><path d="M1230 0v29h29V0h-29Zm27.21 27.206h-25.42V1.794h25.42v25.412Z" fill="#292929"/><path fill-rule="evenodd" clip-rule="evenodd" d="M1164.87 9.786c-.23.91-1.6 6.154-1.6 6.154h3.36s-1.49-5.244-1.72-6.154h-.04Z" fill="#292929"/><path fill-rule="evenodd" clip-rule="evenodd" d="M1153 0v29h29V0h-29Zm15.3 22.41-1.18-3.895h-4.34l-1.09 3.895h-3.56l4.65-15.19h4.5l4.71 15.19h-3.69Zm8.46 0h-3.43V11.395h3.43V22.41Zm-1.74-12.371c-1.08 0-1.8-.77-1.78-1.712-.02-.994.7-1.737 1.81-1.737s1.8.743 1.82 1.737c0 .942-.71 1.712-1.85 1.712Z" fill="#292929"/><path d="M793.5 26.1a11.597 11.597 0 0 0 11.6-11.6 11.598 11.598 0 0 0-11.6-11.6 11.597 11.597 0 0 0-11.6 11.6 11.598 11.598 0 0 0 11.6 11.6Zm0 2.9c-8.008 0-14.5-6.492-14.5-14.5S785.492 0 793.5 0 808 6.492 808 14.5 801.508 29 793.5 29Z" fill="#292929"/><path d="m798.233 9.908-1.167-.087-.859-.854.859.855s1.116.082 1.167.087a.138.138 0 0 1 .127.116l1.582 10.709-4.48.968-8.269-1.547s1.061-8.207 1.102-8.497c.052-.383.065-.396.471-.522l1.308-.406c.281-1.189 1.174-3.526 3.045-3.526.243 0 .526.13.754.433l.068-.003c.803 0 1.258.685 1.518 1.429l.434-.134a.485.485 0 0 1 .195-.014l2.145.993Zm-4.292 2.476s-.373-.217-1.13-.217c-1.962 0-2.933 1.31-2.933 2.665 0 1.61 1.605 1.653 1.605 2.632a.552.552 0 0 1-.58.56c-.629 0-1.375-.64-1.375-.64l-.379 1.256s.725.883 2.146.883c1.181 0 2.059-.89 2.059-2.274 0-1.759-1.958-2.046-1.958-2.797 0-.138.045-.683.915-.683.595 0 1.077.258 1.077.258l.553-1.643Zm1.061-3.182c-.178-.541-.454-1.012-.867-1.063.103.294.167.667.167 1.13v.15l.7-.217Zm-1.38-.972c-.455.196-.977.714-1.256 1.788l1.446-.447v-.08c0-.559-.076-.972-.189-1.262l-.001.001Zm-.556-.526c-1.342 0-2.098 1.763-2.415 2.845l1.142-.354c.272-1.418.914-2.129 1.513-2.41a.423.423 0 0 0-.24-.081ZM870.464 0c-.508 0-.943.181-1.305.544l-2.647 2.646 3.335 3.335a2.195 2.195 0 0 1 2.302.526c.302.302.496.658.58 1.069.085.41.067.822-.054 1.232l3.19 3.19a2.51 2.51 0 0 1 1.232-.054 2.12 2.12 0 0 1 1.088.598c.435.435.652.96.652 1.577 0 .616-.217 1.136-.652 1.559a2.18 2.18 0 0 1-1.577.634 2.214 2.214 0 0 1-1.577-.616 2.337 2.337 0 0 1-.598-1.16 2.18 2.18 0 0 1 .127-1.269l-3.009-3.008v7.902c.218.097.411.23.58.399.435.435.653.96.653 1.577 0 .616-.218 1.142-.653 1.576-.435.435-.96.653-1.577.653a2.088 2.088 0 0 1-1.558-.652 2.18 2.18 0 0 1-.635-1.577c0-.617.218-1.142.653-1.577.193-.194.435-.35.725-.471v-7.975a1.646 1.646 0 0 1-.725-.472 2.039 2.039 0 0 1-.635-1.142 2.23 2.23 0 0 1 .127-1.287l-3.262-3.298-8.7 8.7a1.8 1.8 0 0 0-.544 1.323c0 .52.181.96.544 1.323l12.651 12.651a1.8 1.8 0 0 0 1.323.544 1.8 1.8 0 0 0 1.323-.544l12.615-12.615a1.8 1.8 0 0 0 .544-1.323 1.8 1.8 0 0 0-.544-1.323L871.805.544A1.824 1.824 0 0 0 870.464 0ZM257.94 0l-.213 1.082c-.329 2.052-.21 2.638.691 3.4l.87.703-.901 3.925c-.538 2.342-1.198 4.305-1.618 4.95-.359.556-.779 1.376-.869 1.816-.15.526-.661 1.054-1.44 1.522-.688.382-2.04 1.407-2.997 2.229-.765.672-1.292 1.085-1.579 1.262l-.934.723c-.301.47-.471.85-.536 1.137-.065.297-.028.493.068.637.094.138.255.235.476.296.262.06.531.082.799.064a8.676 8.676 0 0 0 1.791-.31c.198-.053.354-.103.49-.147.209-.252.694-.728 1.552-1.556 2.278-2.195 3.148-3.396 2.25-3.072-.331.116-.181-.178.388-.764 1.202-1.144 1.89-2.871 3.329-8.288 1.139-4.277 1.139-4.338 1.978-4.338.394 0 1.507.066 1.507.066V0h-5.102Zm10.877 8.761c-.182 0-.482.266-.66.56-.329.526.059.847 5.006 3.864 2.938 1.819 5.307 3.369 5.247 3.488-.059.086-2.459 1.611-5.335 3.369-5.219 3.161-5.247 3.192-4.768 3.837.6.761 0 1.024 6.774-3.106L280 17.697v-2.314l-5.488-3.31c-2.967-1.817-5.545-3.281-5.695-3.312Zm-45.574.324c-.151 0-2.729 1.495-5.695 3.28L212 15.678v2.314l5.516 3.369c3.06 1.843 5.639 3.369 5.758 3.369.119 0 .36-.266.6-.587.36-.557.057-.792-5.009-3.926-4.825-2.959-5.335-3.369-4.853-3.69.3-.204 2.578-1.583 5.037-3.075 5.607-3.37 5.307-3.137 4.857-3.84-.179-.29-.482-.553-.661-.526h-.002Zm24.604.064c-.827-.006-2.606 1.226-7.933 5.476-.23.534-.249.902-.145 1.14a.696.696 0 0 0 .366.36c.17.083.391.133.635.152.484.042 1.056-.033 1.518-.122l.312-.069c.107-.14.247-.252.408-.326.329-.178 1.709-1.407 3.088-2.724 2.429-2.403 2.998-3.488 2.009-3.84a.695.695 0 0 0-.255-.047h-.003Zm6.222 1.67c-.728.019-2.04.844-4.287 2.596-1.127.894-1.841 1.376-2.224 1.475l-1.484 1.146c-.559.997-.641 1.614-.493 1.955a.693.693 0 0 0 .391.37c.216.084.447.127.68.125a6.31 6.31 0 0 0 1.643-.235c.279-.073.554-.158.824-.255l.083-.033.15-.078c.283-.357.935-1.03 1.751-1.804 2.578-2.43 3.896-4.158 3.626-4.803-.121-.313-.331-.47-.66-.46Zm-6.868 2.989c-.209.022-.68.376-1.527 1.102-1.224 1.057-2.558 1.666-3.02 1.395-.107.024-.215.046-.323.066-.471.092-1.057.166-1.581.125a2.043 2.043 0 0 1-.714-.174.943.943 0 0 1-.476-.471c-.105-.25-.105-.56.014-.955l-1.842 1.478-4.168 3.369v5.462l13.657-10.511c-.002-.115.013-.23.045-.34.105-.372.1-.56-.065-.543v-.003Zm5.877 1.769c-.207 0-.553.285-1.105.858-.751.783-1.933 1.542-2.559 1.697l-.096.05c-.103.041-.207.08-.312.116-.17.055-.391.122-.646.188-.51.136-1.145.26-1.711.247-.267 0-.532-.052-.779-.15a.966.966 0 0 1-.522-.498c-.164-.385-.099-.925.261-1.692l-12.047 9.271V29h5.292l11.226-8.615c.292-.315.731-.747 1.323-1.287 1.587-1.437 1.947-1.932 1.947-2.666 0-.57-.066-.858-.272-.858v.003Zm2.671 5.398-.96.936c-.538.498-1.499 1.112-2.156 1.375l-.131.056-.008.014-.028.027c-.026.02-.037.022-.057.03a9.845 9.845 0 0 1-.799.258c-.6.17-1.218.278-1.842.319a2.996 2.996 0 0 1-.878-.075 1.037 1.037 0 0 1-.618-.399c-.136-.205-.175-.479-.099-.816.061-.24.151-.473.269-.693L239.384 29h12.047l1.44-1.611c1.977-2.253 2.878-3.865 2.878-5.243v-1.171ZM650.363 3.504 643 9.502h4.809V29l2.554-2.057V3.503ZM652.485 25.2l7.493-6.148h-4.943V0l-2.55 1.775V25.2ZM953.464 10.28c.138.069.262.164.366.278l2.838-1.267-2.648-2.632-.594 3.582.038.038Zm-5.89-2.393c.138.209.224.447.252.696l4.226 1.797c.128-.098.274-.171.429-.215l.694-4.304-2.574-2.709-3.027 4.67v.065Zm14.42 6.658L957.465 10l-3.079 1.265 7.569 3.228s.064.05.039.05Zm-.758.735-7.266-3.115a1.263 1.263 0 0 1-.846.493l-.782 4.798c.233.236.365.554.366.886l4.391.924 4.024-4.013v-.075l.113.102Zm-9.626-4.114-3.949-1.686a1.45 1.45 0 0 1-1.262.659h-.24l-3.268 5.064 8.731-3.797v.012a1.141 1.141 0 0 1 0-.203.067.067 0 0 0-.012-.05Zm4.794 8.86-3.861-.797c-.145.186-.337.33-.556.417l-.92 5.723 5.362-5.33s-.012.024-.025.024v-.037Zm-5.401-.392a1.263 1.263 0 0 1-.744-.861l-7.19-1.482-.102.165 6.523 9.47.391-.393 1.11-6.875s.038.026.012.013v-.037Zm-7.783-3.216 7.103 1.468a1.26 1.26 0 0 1 .996-.633l.769-4.72-.163-.14-8.831 3.797c.046.074.088.15.126.228Zm-2.978 1.19-.151-.152-3.066 1.266 1.489 1.481 1.691-2.633.037.038Zm2.018.48a1.644 1.644 0 0 1-1.224.064l-1.866 2.722L947.345 29l1.438-1.43-6.523-9.481Zm-1.148-3.201c.126-.012.253-.012.38 0 .138-.018.277-.018.415 0l3.305-5.153a1.446 1.446 0 0 1-.403-1 1.504 1.504 0 0 1 0-.328l-4.012-1.861-3.229 3.152 3.544 5.19Zm.366-8.975 3.912 1.67a1.496 1.496 0 0 1 1.009-.341c.163.001.325.027.48.076l3.052-4.785L947.408 0l-5.93 5.836s-.012.063 0 .076Zm-1.462 9.899c.079-.147.176-.284.29-.405l-3.345-5.013-3.961 3.86 7.014 1.558h.002Zm-.316.848-6.056-1.268 2.662 2.71 3.356-1.43.038-.012Z" fill="#292929"/></svg>