<svg xmlns="http://www.w3.org/2000/svg" viewBox="0 0 162.56 84.34"><defs><style>.cls-1,.cls-3{fill:#fff;stroke:#fff;}.cls-1,.cls-2,.cls-3{stroke-linecap:round;stroke-linejoin:round;}.cls-1{stroke-width:3px;}.cls-2{fill:#181818;stroke:#181818;}.cls-2,.cls-3{stroke-width:1.5px;}</style></defs><title>Fichier 8</title><g id="Calque_2" data-name="Calque 2"><g id="Calque_2-2" data-name="Calque 2"><rect class="cls-1" x="1.5" y="1.5" width="82.34" height="81.34"/><path class="cls-2" d="M42.31,43.17V73.81a0,0,0,0,1,0,0H34.83a0,0,0,0,1,0,0V33.87a0,0,0,0,1,0,0h7.46l0,0,6.91,9.22a0,0,0,0,1,0,.07H42.35A0,0,0,0,0,42.31,43.17Zm24.37-9.35h7.46a0,0,0,0,1,0,0V73.81a0,0,0,0,1,0,0H66.7a0,0,0,0,1,0,0l0-30.54a0,0,0,0,0-.08,0L59.21,54.14l0,0H52.27a0,0,0,0,1,0-.07L66.65,33.84S66.67,33.82,66.68,33.82Z"/><path class="cls-3" d="M103.55,33.92V74H96.73v-40Zm10.52,20.33h-6.95l8,19.7h7.08l-8.16-19.7a11,11,0,0,0,6.63-6.12,10.71,10.71,0,0,0,0-8.22,10.65,10.65,0,0,0-6.63-6Z"/><path class="cls-3" d="M140.33,33.92V74h-7.52v-40Zm21.48,31.36V74h-9.75Z"/></g></g></svg>