<svg xmlns="http://www.w3.org/2000/svg" viewBox="0 0 162.54 84.34"><defs><style>.cls-1,.cls-3{fill:#34558b;stroke:#34558b;}.cls-1,.cls-2,.cls-3{stroke-linecap:round;stroke-linejoin:round;}.cls-1{stroke-width:3px;}.cls-2{fill:#fff;stroke:#fff;}.cls-2,.cls-3{stroke-width:1.5px;}</style></defs><title>Fichier 6</title><g id="Calque_2" data-name="Calque 2"><g id="Calque_2-2" data-name="Calque 2"><rect class="cls-1" x="1.5" y="1.5" width="82.33" height="81.34"/><path class="cls-2" d="M42.3,43.13V73.85H34.78v-40H42.3l7,9.31Zm24.35-9.31h7.52v40H66.65l0-30.72-7.51,11h-7Z"/><path class="cls-3" d="M103.54,33.91v40H96.72v-40Zm10.52,20.34h-7l8,19.69h7.07l-8.15-19.69a11.45,11.45,0,0,0,4.14-2.52,10.92,10.92,0,0,0,2.48-3.6,10.59,10.59,0,0,0,0-8.22,10.61,10.61,0,0,0-2.48-3.57,10.89,10.89,0,0,0-4.14-2.43Z"/><path class="cls-3" d="M140.32,33.91v40h-7.53v-40Zm21.47,31.36v8.67H152Z"/></g></g></svg>